<svg width="190" height="50" viewBox="0 0 190 50" fill="none" xmlns="http://www.w3.org/2000/svg">
<g clip-path="url(#clip0_87_937)">
<path d="M57.9262 10.2294C52.6087 6.0011 47.1629 4.98746 41.5886 9.05156C37.0436 12.3661 35.5447 17.6913 37.4746 22.6715C39.2737 27.3162 44.2256 30.5856 49.2477 30.4499C54.4878 30.3072 59.0885 26.6809 60.4857 21.439C60.9579 19.6687 61.1686 17.8222 61.3986 15.9972C62.6215 6.28664 70.2951 0.204764 80.7582 0.683033C89.7273 1.0923 97.1007 8.59946 97.4106 17.6437C97.752 27.5803 91.4659 35.1327 81.6178 36.0654C78.5571 36.3557 75.2494 35.9869 72.2976 35.1184C66.9656 33.5527 66.6677 32.0442 70.0675 26.995C70.7551 27.3662 71.4961 27.7064 72.1717 28.1443C77.2326 31.4208 82.7632 31.1447 87.3131 27.3614C91.3085 24.0397 92.4684 18.3838 90.1632 13.4512C87.9524 8.71367 82.6421 5.87261 77.419 6.62928C72.0676 7.40498 67.8567 12.0568 67.0721 17.6961C66.6459 20.7513 66.2972 23.9731 65.0308 26.7261C61.4301 34.5569 51.8363 38.1855 43.0125 35.4801C34.9611 33.0102 29.5758 24.9177 30.5662 16.7729C31.6607 7.75238 38.8766 0.866251 47.7634 0.728243C50.5674 0.685413 53.5773 1.02567 56.161 2.02266C61.3284 4.01664 61.3986 4.89466 57.9262 10.2294Z" fill="white"/>
<path d="M139.009 21.03C139.851 26.3813 142.934 28.7108 147.004 29.8506C149.598 30.5763 150.985 32.0754 149.92 34.3549C149.467 35.3209 146.89 36.0514 145.525 35.7635C136.543 33.8671 131.216 25.5604 132.333 15.6738C133.308 7.03165 140.677 0.680901 149.765 0.647589C159.223 0.614277 167.088 7.07448 168.332 15.6833C168.853 19.2834 167.928 20.9038 163.875 20.7468C157.269 20.4898 150.644 20.6588 144.028 20.6944C142.503 20.7016 140.977 20.8919 139.011 21.0276L139.009 21.03ZM160.734 14.5864C159.586 9.11843 154.772 5.97518 149.075 6.49628C143.805 6.97692 140.018 10.3248 140.05 14.5864H160.731H160.734Z" fill="white"/>
<path d="M94.2532 1.11398C101.406 1.11398 108.363 0.316861 115.039 1.32337C122.756 2.48692 127.788 9.83466 127.962 17.813C128.154 26.5907 123.616 33.1271 115.584 35.6493C111.075 37.0659 108.88 40.1711 109 44.9649C109.027 46.0903 109.458 47.6536 108.884 48.2414C108.07 49.0765 106.443 49.6191 105.266 49.4739C104.457 49.374 103.251 47.9201 103.21 47.0255C103 42.5021 103.162 37.9645 103.094 33.434C103.043 30.0029 105.542 30.6001 107.62 30.5454C114.736 30.3503 118.749 27.7686 120.572 22.1626C122.904 14.9957 118.858 8.09528 111.361 6.82466C108.692 6.37256 105.884 6.25835 103.193 6.52009C98.762 6.95315 96.372 4.65222 94.2532 1.1116V1.11398Z" fill="white"/>
<path d="M26.9827 3.28579C25.2054 5.86511 23.6314 7.4641 20.1445 6.71933C14.7132 5.56054 9.65961 8.48964 7.39313 13.3033C5.09032 18.1954 6.18239 23.9013 10.0713 27.2944C14.4372 31.1039 19.6409 31.4989 24.7913 28.4104C25.6219 27.9131 26.4524 27.4134 27.6632 26.6901C28.6051 28.5032 29.426 30.0784 30.1791 31.5251C25.634 37.8877 12.1029 37.5998 6.11702 32.0795C-0.876165 25.6312 -2.14985 14.6881 3.73914 7.4879C9.64751 0.263887 20.1227 -1.74675 26.9827 3.28579Z" fill="white"/>
<path d="M190 5.09476C188.714 6.51529 187.523 7.83588 186.445 9.02799C185.843 8.95898 185.523 9.00181 185.293 8.88284C178.377 5.28987 177.648 5.71341 177.648 13.3372C177.648 19.6998 177.636 26.0648 177.658 32.4275C177.665 34.5571 177.547 36.4059 174.583 36.4297C171.679 36.4535 171.415 34.7784 171.428 32.5488C171.478 23.2166 171.544 13.8821 171.396 4.54986C171.35 1.55414 172.503 0.554768 175.425 0.592839C180.598 0.661843 185.772 0.497661 190.003 5.09476H190Z" fill="white"/>
</g>
<defs>
<clipPath id="clip0_87_937">
<rect width="190" height="49" fill="white" transform="translate(0 0.5)"/>
</clipPath>
</defs>
</svg>
