<svg width="316" height="66" viewBox="0 0 316 66" fill="none" xmlns="http://www.w3.org/2000/svg">
<g clip-path="url(#clip0_87_1134)">
<path d="M51.8429 20.8117C50.9719 21.7354 50.2995 22.8393 49.2809 23.626C48.937 23.6158 48.7588 23.7808 48.7511 24.1259C48.6671 24.2147 48.5805 24.3061 48.4965 24.3949C48.0737 24.438 47.8369 24.674 47.7808 25.0927C47.6892 25.3034 47.5465 25.4632 47.3352 25.5597C47.0983 25.5343 46.9913 25.6434 47.0092 25.8769C46.5431 26.4885 46.0007 27.0265 45.3895 27.4909C44.9641 27.5315 44.7273 27.7649 44.6713 28.1836C44.5872 28.275 44.5006 28.3664 44.4166 28.4577C44.0626 28.4653 44.0524 28.6988 44.0906 28.9602C44.0855 28.9982 44.0652 29.0236 44.0295 29.0363C43.9098 29.0718 43.7723 29.082 43.6755 29.1505C42.7256 29.8204 42.4047 29.8001 41.6203 28.9627C41.2688 28.5871 40.9709 28.1633 40.6169 27.7928C38.6432 25.7119 36.4657 23.829 34.6219 21.6212C34.1304 21.035 33.6618 20.426 32.9283 20.1113C32.8341 20.0148 32.7373 19.9184 32.6431 19.822C32.4826 19.3982 32.2076 19.0886 31.7644 18.9439C31.7186 18.9313 31.6906 18.9033 31.6779 18.8577C31.5225 18.4263 31.2322 18.1268 30.7916 17.9771C30.7458 17.9644 30.7177 17.9365 30.705 17.8933C30.5598 17.4518 30.2542 17.1726 29.8238 17.0153C29.7271 16.9214 29.6277 16.8275 29.531 16.7362C29.1158 15.9875 28.6116 15.3227 27.8094 14.942C26.3781 13.5361 24.9443 12.1328 23.513 10.7295C22.8509 10.1204 22.0003 9.97324 21.17 9.85651C20.5588 9.77023 19.8916 9.73216 19.423 10.3133C19.013 10.6204 18.6004 10.9299 18.1904 11.237C17.7625 11.3233 17.6785 11.6126 17.7396 11.9907C17.7141 12.1379 17.6887 12.2851 17.6632 12.4297C17.3958 12.549 17.4493 12.7469 17.5384 12.9525C17.569 18.1877 17.6123 23.423 17.625 28.6582C17.6403 34.5761 17.6301 40.4939 17.6275 46.4118C17.6275 46.7011 17.6021 46.9879 17.5868 47.2772C17.4034 47.6426 17.3449 48.0004 17.6683 48.3303C17.7116 48.6881 17.7549 49.0434 17.7982 49.3987C17.5893 50.2767 18.3636 50.7512 18.6386 51.4288C18.7175 51.6521 18.7965 51.8729 18.8754 52.0962C19.1352 52.7636 19.5682 53.3067 20.0928 53.7838C20.1997 53.8802 20.3042 53.9792 20.4111 54.0756C20.6811 54.7582 21.1395 55.215 21.901 55.3115C22.3772 55.3597 22.637 55.72 22.9349 56.022C23.7703 56.5118 24.5445 57.1411 25.581 57.1741C25.7287 57.1969 25.879 57.2198 26.0267 57.2426C26.2355 57.6055 26.5233 57.4989 26.8136 57.3746C27.1498 57.405 27.4859 57.4355 27.8221 57.4659C27.9112 57.707 28.1226 57.6969 28.3034 57.6588C29.177 57.4761 29.3501 56.8493 29.3501 56.0651C29.34 49.0231 29.3451 41.981 29.3425 34.9415C29.3425 34.7182 29.3018 34.4974 29.2788 34.2741C29.2916 34.2411 29.3145 34.2157 29.3476 34.203C29.5208 34.2715 29.6481 34.2462 29.6838 34.0381C29.8264 34.0203 29.969 34.0051 30.1116 33.9899C30.2873 34.1015 30.4707 34.1015 30.6566 34.0152C30.7483 34.1041 30.84 34.1903 30.9291 34.2792C30.8553 34.4999 30.9368 34.6192 31.166 34.6446C31.4996 34.8324 31.711 35.1242 31.8867 35.4516C31.8918 35.921 32.1159 36.1646 32.6023 36.1393C32.7984 36.3321 33.0251 36.5047 33.048 36.8118C33.0887 37.3345 33.4453 37.5731 33.8833 37.7431C34.329 37.9461 34.5353 38.3699 34.8027 38.7379C34.9071 39.2555 35.0777 39.7225 35.689 39.8291C35.8443 39.9864 36.0022 40.1412 36.1576 40.2985C36.099 40.5066 36.1677 40.6284 36.3944 40.636C36.7611 41.0573 37.1253 41.4786 37.492 41.8998C37.543 42.2729 37.7849 42.4708 38.1262 42.5748C38.172 42.6662 38.2179 42.7601 38.2612 42.8514C38.2841 43.1813 38.4496 43.3539 38.7934 43.3234C39.1933 43.5112 39.2926 43.9782 39.6237 44.2269C39.9114 45.0821 40.5761 45.653 41.223 46.2037C42.2188 47.0564 43.0821 47.0082 44.0957 46.1555C44.3529 45.7013 44.6993 45.3384 45.1653 45.0947C45.5626 44.8308 45.8377 44.4654 46.0491 44.0467C46.1458 43.9477 46.2452 43.8487 46.3419 43.7472C46.4285 43.7117 46.538 43.699 46.6017 43.6381C48.7741 41.5851 50.432 39.0779 52.5254 36.9564C52.6655 36.8143 52.6807 36.6087 52.5967 36.4108C52.6833 36.322 52.7724 36.2357 52.859 36.1469C53.0882 36.2129 53.2054 36.124 53.2257 35.8906C53.3174 35.7967 53.4091 35.7028 53.4982 35.6089C53.7351 35.5835 53.8268 35.4592 53.7478 35.2282C53.9312 35.0328 54.1146 34.8349 54.2979 34.6395C54.5297 34.6243 54.5959 34.4949 54.5373 34.2842C54.6264 34.1979 54.7156 34.1117 54.8047 34.0254C55.2504 34.0305 55.6579 34.3401 56.1239 34.1929L56.1774 34.2487C56.1545 34.5989 56.1137 34.9516 56.1112 35.3018C56.1086 40.971 56.1494 46.6402 56.0857 52.3094C56.0653 54.1644 56.6129 56.1235 55.3981 57.8415C55.3141 57.9303 55.2275 58.0166 55.1434 58.1054C54.9193 58.0268 54.7792 58.0801 54.7716 58.3414C54.5399 58.5597 54.3056 58.7805 54.0738 58.9987C53.5797 58.9784 53.2538 59.2905 52.8972 59.5646C51.5016 60.633 49.9379 61.4298 48.3564 62.1683C46.589 62.9905 44.7604 63.6858 42.9573 64.437C42.8071 64.4547 42.6594 64.4725 42.5091 64.4902C41.1313 64.3837 39.9675 65.1577 38.6814 65.4241C38.1313 65.4495 37.5812 65.4723 37.0311 65.4977C35.065 65.3251 33.0964 65.3277 31.1278 65.4977C30.5115 65.4698 29.8977 65.4393 29.2839 65.4114C29.2483 65.3607 29.2203 65.2769 29.1744 65.2642C26.1183 64.4826 23.019 63.871 20.1615 62.4144C19.0308 61.8384 17.9382 61.2014 16.8126 60.6355C15.8499 60.1508 15.1827 59.1586 14.0188 59.0596C13.9806 59.0444 13.9552 59.019 13.9399 58.9809C13.9322 58.5115 13.7209 58.2552 13.2192 58.3034C12.9135 58.2628 12.7709 58.009 12.5825 57.8161C12.6665 57.5345 12.4551 57.4279 12.2871 57.2782C11.7701 56.8239 11.4492 56.2098 10.9322 55.7251C10.3159 55.1465 9.58497 54.7659 8.96612 54.2253C8.87698 54.134 8.7853 54.0426 8.69616 53.9513C8.68088 53.4869 8.5892 53.0808 8.0009 53.0631C7.90922 52.9692 7.82009 52.8778 7.7284 52.7839C7.50175 51.7156 6.65114 51.0101 6.12651 50.1143C5.18677 48.513 4.23174 46.9143 3.61034 45.1709C3.06534 43.6407 2.43121 42.1282 2.18417 40.4939C2.08485 39.8291 1.75887 39.1972 1.5373 38.5501C1.51948 38.4029 1.4991 38.2532 1.48128 38.106C1.50929 37.9182 1.5755 37.7253 1.55768 37.5426C1.32592 35.2638 1.29027 32.9748 1.41761 30.6985C1.51438 28.9297 1.37686 27.1077 2.19436 25.4125C2.46686 24.8466 2.73681 24.164 2.42357 23.4762C2.44394 23.3265 2.46686 23.1768 2.48723 23.0296C3.55177 21.7963 3.71221 20.1417 4.47114 18.7511C5.35231 17.1346 6.22838 15.5257 7.2267 13.9752C7.6953 13.2469 8.59429 12.8002 8.68088 11.8232C8.77002 11.7344 8.8617 11.6481 8.95083 11.5593C9.36341 11.6684 9.51621 11.3487 9.68175 11.0924C10.293 10.1509 11.1487 9.44794 11.9687 8.70948C12.2081 8.49378 12.6691 8.45825 12.585 7.97355C12.7022 7.70202 12.911 7.53961 13.1937 7.46602C13.6215 7.57514 13.782 7.39496 13.731 6.97878C13.8176 6.8925 13.9042 6.80368 13.9908 6.7174C14.4696 6.80368 14.7497 6.47125 15.0706 6.2124C16.3618 5.17449 17.8186 4.32944 19.2957 3.66965C20.3958 3.17734 21.4451 2.43633 22.7236 2.29168C23.2253 2.23586 23.6862 1.86028 24.081 1.49232C24.2261 1.47201 24.3738 1.44917 24.519 1.42887C24.8093 1.68264 25.1277 1.55322 25.4282 1.46948C26.1998 1.25124 26.9511 0.956865 27.733 0.794453C30.1778 0.291992 32.6634 0.431565 35.1363 0.401112C35.8316 0.393499 36.5421 0.550836 37.2272 0.291992C37.3749 0.302143 37.5226 0.314831 37.6678 0.322444C37.7162 0.505157 37.8562 0.573675 38.0294 0.573675C39.3308 0.563524 40.5659 0.835056 41.7935 1.26139C42.2875 1.43395 42.8631 1.73339 43.4463 1.43649C43.5889 1.45679 43.7315 1.47963 43.8716 1.49993C44.4421 1.95417 45.0507 2.34751 45.7715 2.51754C47.1136 2.83475 48.2749 3.55291 49.4973 4.14165C51.2597 4.98924 52.747 6.27077 54.466 7.17926C54.5602 7.26808 54.6545 7.35436 54.7461 7.44318C54.9066 7.84413 55.2504 8.01669 55.6299 8.14611C55.7241 8.23493 55.8158 8.32121 55.91 8.41003C55.9991 8.79069 56.2283 9.02669 56.618 9.10536C56.7071 9.19671 56.7937 9.28553 56.8828 9.37435C57.028 9.82606 57.3183 10.1382 57.7818 10.2727C57.82 10.2778 57.843 10.3006 57.8481 10.3387C58.0442 10.8487 58.4185 11.2345 58.798 11.6024C59.3863 12.1785 59.4016 12.818 58.8082 13.3534C58.4109 13.7138 58.0645 14.1173 57.843 14.6121C57.8353 14.6502 57.8124 14.673 57.7742 14.6781C56.8446 15.0917 56.4066 15.9444 55.9125 16.7489C55.8209 16.8377 55.7292 16.9265 55.6375 17.0128C55.1893 17.16 54.876 17.4467 54.7385 17.906C54.7309 17.9466 54.7079 17.9695 54.6697 17.9771C54.2139 18.1217 53.9134 18.4186 53.7682 18.8729C53.7606 18.9135 53.7376 18.9363 53.6969 18.9439C53.2385 19.081 52.9507 19.3906 52.803 19.8347C52.7113 19.926 52.6222 20.0199 52.533 20.1113C52.1536 20.195 51.9193 20.426 51.8352 20.8066L51.8429 20.8117Z" fill="white"/>
<path d="M234.739 52.2481C234.331 53.2226 234.306 54.2174 233.526 54.9812C231.838 56.6358 229.874 56.783 227.801 56.1891C225.978 55.6664 224.885 53.7885 224.85 51.6137C224.842 51.1315 225.117 50.2967 224.618 50.2357C223.956 50.152 224.31 51.0808 224.05 51.431C223.044 52.7912 222.723 54.4661 221.873 55.8821C221.427 56.6231 219.224 56.5114 218.888 55.745C218.144 54.0575 217.444 52.3471 216.728 50.6468C216.631 50.4185 216.619 50.0403 216.333 50.0606C215.997 50.0835 215.957 50.4641 215.951 50.7433C215.929 52.0959 215.85 53.4561 215.941 54.801C216.035 56.1815 215.546 56.6307 213.911 56.1485C213.489 56.0242 213.175 55.9607 212.737 56.1282C211.502 56.6002 210.219 56.6459 208.938 56.278C208.029 56.0166 207.135 54.6183 207.198 53.6058C207.27 52.4537 208.049 51.5198 209.101 51.2305C209.997 50.9844 210.901 51.1112 211.8 51.058C212.2 51.0351 212.783 51.1062 212.748 50.5301C212.717 50.0556 212.74 49.4161 211.935 49.307C211.355 49.2283 210.756 49.043 210.216 49.246C209.113 49.6622 207.944 49.4008 206.821 49.6952C205.854 49.949 205.482 50.1495 205.469 51.1823C205.451 52.5044 205.426 53.8266 205.477 55.1462C205.515 56.179 204.878 56.2881 204.101 56.3084C203.312 56.3287 202.678 56.2247 202.714 55.1868C202.754 53.9966 202.698 52.8013 202.731 51.6112C202.752 50.8651 202.622 50.2307 202.036 49.6952C201.542 49.2435 201.29 48.5583 201.766 48.0483C202.601 47.155 202.907 45.9724 203.638 45.0386C204.384 44.0793 206.101 43.5819 207.211 44.0362C207.557 44.1783 208.011 44.3458 207.876 44.8381C207.741 45.3329 207.728 45.9851 206.982 46.0536C206.758 46.0739 206.523 46.0359 206.304 46.079C205.92 46.1552 205.658 46.3886 205.658 46.8023C205.658 47.2032 205.912 47.5712 206.274 47.5509C207.216 47.4951 208.054 47.8782 209.131 47.523C211.169 46.8479 213.412 46.6678 215.06 48.6852C215.312 48.9923 215.516 48.9238 215.575 48.5609C215.709 47.7488 216.018 47.1195 216.988 47.2362C217.897 47.3453 218.445 48.0203 218.656 48.7791C218.987 49.9668 219.667 50.9945 220.026 52.1593C220.098 52.3928 220.128 52.7328 220.446 52.7303C220.747 52.7303 220.772 52.3775 220.91 52.172C221.801 50.8372 221.962 49.1623 222.968 47.8732C223.38 47.3453 223.836 47.1068 224.465 47.2641C225.071 47.4164 225.089 47.9214 225.071 48.4264C225.061 48.7284 225.107 49.0329 225.458 49.1192C225.772 49.1953 225.886 48.9288 226.052 48.7284C227.368 47.1245 230.651 46.7337 232.23 47.7843C233.6 48.6928 234.489 49.7333 234.634 51.497C235.289 50.9311 235.256 50.2738 235.342 49.6749C235.401 49.2638 235.358 48.8349 235.436 48.4289C235.643 47.3529 236.509 46.9799 237.405 47.6372C238.075 48.1269 238.643 48.0356 239.269 47.6422C239.486 47.5052 239.707 47.3276 239.947 47.2895C240.403 47.2184 241.011 47.0205 241.149 47.6981C241.274 48.3096 241.383 48.9999 240.51 49.2867C238.528 49.9363 238.159 50.4438 238.105 52.5273C238.085 53.3317 238.105 54.1387 238.1 54.9431C238.095 56.0699 237.863 56.3059 236.753 56.311C235.635 56.316 235.36 56.0673 235.363 54.9863C235.365 54.0626 235.347 53.1515 234.739 52.2481ZM227.936 51.9005C227.936 52.0933 227.89 52.2989 227.944 52.4765C228.168 53.2302 228.288 54.0499 229.35 54.1615C230.228 54.2529 230.801 54.0905 231.313 53.2327C232.016 52.0527 231.774 51.1747 231.031 50.1723C230.318 49.2105 229.278 49.0786 228.517 50.0099C228.069 50.5555 227.919 51.2077 227.936 51.9005ZM211.462 55.0599C211.994 54.7934 212.771 54.6056 213.175 53.8722C213.731 52.8673 213.573 52.545 212.445 52.243C211.933 52.106 211.431 52.1542 210.914 52.2253C210.025 52.3496 209.587 52.8293 209.618 53.7124C209.638 54.329 210.573 55.065 211.462 55.0599Z" fill="white"/>
<path d="M205.085 31.9291C205.085 33.2817 205.092 34.6343 205.082 35.9894C205.075 36.9664 204.509 37.54 203.534 37.54C202.092 37.54 200.613 37.7201 199.37 36.6949C199.095 36.4665 198.827 36.7406 198.56 36.8269C197.096 37.3014 195.682 37.9434 194.065 37.7785C191.911 37.5577 189.896 36.9791 188.605 35.152C187.64 33.7867 187.54 32.1601 187.999 30.5334C188.394 29.1275 189.282 28.2546 190.622 27.5973C192.002 26.9198 193.39 26.8487 194.842 26.8614C196.039 26.8715 197.233 26.8563 198.43 26.8665C198.81 26.869 199.171 26.8132 199.334 26.4427C199.507 26.0443 199.462 25.6357 199.209 25.2525C198.466 24.1207 197.439 23.5903 196.067 23.6157C194.419 23.6462 192.764 23.5497 191.325 24.5851C190.887 24.8998 190.467 24.7602 190.079 24.4633C189.766 24.2247 189.461 23.938 189.399 23.5497C189.267 22.7021 188.154 21.8368 188.714 21.1922C189.369 20.4385 190.523 20.0249 191.572 19.7483C194.483 18.9844 197.404 18.9058 200.343 19.695C201.85 20.101 202.813 21.1237 203.694 22.2733C204.991 23.9634 204.84 26.0265 205.054 27.9729C205.197 29.2773 205.082 30.6121 205.082 31.9317L205.085 31.9291ZM196.902 29.7011V29.7239C196.355 29.7239 195.802 29.7569 195.257 29.7163C194.228 29.6376 193.627 30.272 193.146 31.0054C192.626 31.7946 193.138 33.6218 193.887 33.9263C195.519 34.5937 198.165 34.0151 199.306 32.7412C199.668 32.3377 199.9 30.6299 199.635 30.1401C199.271 29.4701 198.614 29.7493 198.066 29.7036C197.681 29.6731 197.292 29.6985 196.905 29.6985L196.902 29.7011Z" fill="white"/>
<path d="M165.343 50.9235C165.679 49.274 166.566 48.3706 167.783 47.6372C168.654 47.1119 169.517 47.2033 170.401 47.2109C172.253 47.2261 172.296 47.2515 172.248 45.4345C172.222 44.5032 172.619 44.153 173.478 44.1048C174.848 44.0261 174.978 44.1352 174.983 45.5005C174.988 47.2388 174.95 48.9746 175.135 50.7103C175.309 52.3192 174.978 53.9205 174.97 55.5294C174.965 56.2958 174.216 56.6434 173.18 56.2247C172.568 55.9786 172.1 56.0928 171.532 56.2349C169.548 56.7323 167.719 56.6155 166.245 54.9051C165.677 54.2453 165.776 53.3851 165.277 52.6466C164.691 53.2937 164.628 54.055 164.684 54.7985C164.791 56.1968 164.292 56.4937 162.817 56.2171C162.257 56.1105 161.742 56.0826 161.202 56.2552C160.359 56.5216 159.486 56.5445 158.612 56.4861C157.729 56.4277 156.893 56.3135 156.414 55.3771C156.188 54.933 155.663 54.659 155.398 55.3213C154.983 56.3567 154.173 56.4277 153.33 56.2526C152.536 56.0877 151.825 56.1587 151.059 56.377C149.154 56.92 147.478 56.0293 146.105 54.5118C145.143 53.4485 144.939 52.3294 145.183 51.1976C145.851 48.1244 148.247 46.3709 151.548 47.3504C152.075 47.5078 152.146 47.3454 152.294 47.0282C152.582 46.414 152.459 45.7568 152.447 45.1198C152.429 44.3002 152.757 43.9423 153.595 43.9601C154.802 43.988 155.307 44.2925 155.314 45.163C155.332 47.0967 155.317 49.0304 155.324 50.9641C155.324 51.2813 155.253 51.6188 155.475 51.898C155.709 52.1949 156.104 52.507 156.341 52.0959C157.143 50.7002 158.536 51.1646 159.702 50.9235C159.949 50.8727 160.222 50.9413 160.477 50.9083C160.795 50.8677 161.276 51.1011 161.363 50.5885C161.444 50.1114 161.205 49.7054 160.749 49.4872C160.102 49.1776 159.422 49.274 158.752 49.3781C158.437 49.4288 158.126 49.5278 157.818 49.6267C157.285 49.7942 156.881 49.6724 156.575 49.1826C156.254 48.67 156.442 48.264 156.789 47.8783C156.919 47.7362 157.059 47.5966 157.222 47.4926C159.129 46.2745 162.855 47.1449 164.131 49.038C164.488 49.5658 164.791 50.1343 165.348 50.921L165.343 50.9235ZM152.582 51.9716C152.582 51.6493 152.587 51.4564 152.582 51.2635C152.556 50.4464 151.708 49.3298 151.018 49.203C149.854 48.9847 148.629 49.5329 148.349 50.5403C148.084 51.4996 148.099 52.5019 148.42 53.4764C148.53 53.8088 148.754 54.0093 149.047 54.1692C149.831 54.5981 150.667 54.7072 151.448 54.2885C152.396 53.7809 152.76 52.9156 152.584 51.9741L152.582 51.9716ZM168.002 51.7279C167.992 53.3038 168.998 54.5169 170.269 54.5143C171.71 54.5118 172.581 53.0907 172.584 51.9436C172.584 50.3576 171.593 49.1827 170.256 49.1801C168.978 49.1776 168.012 50.2688 168.005 51.7279H168.002ZM160.298 52.4689C160.01 52.4689 159.715 52.436 159.432 52.4766C158.948 52.5451 158.347 53.4561 158.551 53.8621C158.844 54.4458 159.392 54.8696 160.031 54.7021C160.683 54.5321 161.577 54.5295 161.735 53.5754C161.89 52.6314 161.625 52.4309 160.298 52.4689Z" fill="white"/>
<path d="M127.198 51.9211C127.198 52.921 127.198 53.9208 127.198 54.9181C127.198 55.3952 127.318 55.9713 126.755 56.1895C126.185 56.4128 125.51 56.5042 124.995 56.1032C124.578 55.7759 124.348 55.8368 123.921 56.0753C122.339 56.9635 119.988 56.4839 118.949 55.0704C118.695 54.7253 118.636 54.238 118.491 53.8142C118.379 53.4818 118.3 53.1341 118.157 52.8144C118.017 52.4997 117.867 52.0912 117.442 52.1343C117.042 52.1749 117.075 52.6215 116.971 52.9058C116.566 53.9919 115.87 54.8192 114.872 55.4181C114.355 55.7277 114.024 56.3265 114.299 56.7909C114.61 57.3162 115.231 57.1538 115.743 56.8062C116.711 56.1464 117.589 56.4737 117.796 57.5193C117.854 57.8086 117.824 58.0598 117.584 58.2044C116.39 58.9251 115.193 59.59 113.698 59.0317C112.448 58.5648 111.37 57.8314 110.354 57.0041C109.993 56.7097 109.633 56.4636 109.188 56.3621C105.902 55.6135 103.753 52.0125 104.67 49.0003C105.24 47.1275 106.323 45.6861 108.274 44.9095C109.392 44.4654 110.471 44.2066 111.645 44.3081C113.724 44.4908 116.201 45.8612 116.95 48.0258C117.044 48.2999 117.146 48.5739 117.526 48.5841C117.928 48.5942 118.262 48.442 118.384 48.0791C118.687 47.1757 119.431 47.201 120.129 47.267C120.87 47.3381 120.865 48.0512 120.898 48.5486C120.979 49.7692 120.943 50.9949 120.956 52.218C120.969 53.5503 121.504 54.1746 122.66 54.1924C123.668 54.2076 124.646 53.2433 124.674 52.1622C124.702 51.0659 124.626 49.9646 124.715 48.8759C124.766 48.2567 124.68 47.4421 125.589 47.2467C126.541 47.0412 127.142 47.5056 127.18 48.5409C127.224 49.6677 127.191 50.7969 127.191 51.9262H127.198V51.9211ZM107.7 50.4264C107.708 52.4744 109.172 54.0553 111.062 54.0579C112.901 54.0579 114.671 52.2206 114.6 50.2742C114.536 48.5612 113.273 46.965 111.004 46.9828C109.094 46.998 107.456 48.2085 107.7 50.4264Z" fill="white"/>
<path d="M280.058 51.9412C280.147 50.883 279.931 49.5964 280.178 48.3124C280.282 47.7718 280.338 47.2719 281.026 47.2364C281.734 47.2009 282.398 47.2795 282.709 48.0561C282.757 48.1753 282.796 48.2997 282.831 48.4215C282.956 48.8605 283.099 49.3757 283.56 49.4746C284.049 49.5787 284.054 48.9747 284.273 48.6879C285.309 47.3455 287.859 46.635 289.353 47.4115C290.115 47.8074 290.219 47.3861 290.286 46.8811C290.357 46.3431 290.342 45.7874 290.316 45.2418C290.28 44.4982 290.591 44.0465 291.35 44.0237C292.585 43.9882 293.013 44.3003 293.018 45.2265C293.033 47.0511 293.008 48.8757 293.033 50.6978C293.041 51.2713 293.135 51.8474 293.235 52.4133C293.286 52.7076 293.505 52.9411 293.815 52.9969C294.197 53.0654 294.185 52.7051 294.274 52.4919C294.877 51.0429 296.24 51.1165 297.457 50.9262C297.837 50.8678 298.231 50.9236 298.618 50.9135C298.993 50.9033 299.439 50.9998 299.444 50.3882C299.449 49.8451 299.296 49.4036 298.682 49.3503C297.977 49.2868 297.259 49.2183 296.563 49.4137C296.179 49.5228 295.799 49.5279 295.412 49.5203C295.007 49.5127 294.737 49.2995 294.61 48.9366C294.493 48.6093 294.61 48.3301 294.821 48.0459C295.478 47.1806 296.464 47.2389 297.373 47.1197C299.347 46.8633 301.081 47.2592 302.288 49.0204C302.459 49.2691 302.619 49.5355 302.627 49.8071C302.683 51.7281 302.706 53.6491 302.731 55.5701C302.739 56.098 302.418 56.4101 301.937 56.2984C300.225 55.9 298.573 56.5801 296.882 56.5091C295.608 56.4558 294.597 56.0878 294.215 54.7378C294.144 54.4891 294.085 54.1795 293.744 54.2455C293.444 54.3038 293.286 54.5627 293.209 54.8672C292.865 56.2223 292.389 56.5497 290.945 56.2426C290.28 56.1005 289.695 56.1919 289.053 56.3289C287.056 56.7552 285.284 56.5268 284.005 54.55C283.881 54.3571 283.774 54.1287 283.491 54.2175C283.155 54.3216 282.976 54.5677 282.908 54.918C282.65 56.2299 282.449 56.3594 281.082 56.3289C280.341 56.3137 280.03 55.9838 280.043 55.2605C280.06 54.2302 280.048 53.1999 280.048 51.9438L280.058 51.9412ZM286.078 51.7662C286.086 52.733 286.002 53.7481 287.11 54.248C288.253 54.7632 289.091 54.5601 289.952 53.6009C290.456 53.0401 290.754 51.0429 290.288 50.5125C289.804 49.9644 289.43 49.2132 288.505 49.1777C286.878 49.1143 286.091 49.9289 286.081 51.7662H286.078ZM298.641 52.4437C297.343 52.4386 296.589 52.9208 296.556 53.71C296.53 54.2886 297.197 54.7987 298.073 54.7099C299.034 54.6109 299.836 54.3191 299.818 53.3167C299.803 52.3524 299.133 52.4792 298.641 52.4437Z" fill="white"/>
<path d="M68.8041 52.3827C67.4798 52.3827 66.1555 52.3903 64.8312 52.3801C63.8762 52.3725 62.9059 51.6163 62.7786 50.6875C62.4169 48.0635 62.5214 45.4167 62.664 42.7928C62.7429 41.359 64.0851 40.3972 65.5596 40.3185C67.7498 40.2018 69.9502 40.2551 72.1455 40.3008C73.9256 40.3363 74.9112 41.3945 74.9138 43.148C74.9163 45.432 74.9163 47.7184 74.9138 50.0023C74.9138 51.667 74.1828 52.3801 72.4842 52.3852C71.2566 52.3903 70.0291 52.3852 68.8016 52.3852L68.8041 52.3827Z" fill="white"/>
<path d="M215.567 24.9074C215.567 21.2049 215.567 17.4999 215.567 13.7974C215.567 12.6555 215.766 12.4524 216.914 12.4398C217.915 12.4296 218.919 12.4448 219.919 12.4347C220.719 12.4271 221.114 12.8052 221.114 13.6046C221.114 21.0755 221.124 28.549 221.101 36.0199C221.096 37.4867 220.801 37.7024 219.298 37.7049C218.554 37.7049 217.811 37.7074 217.067 37.7049C215.906 37.6998 215.567 37.3801 215.565 36.2128C215.557 32.4443 215.562 28.6758 215.562 24.9099L215.567 24.9074Z" fill="white"/>
<path d="M121.203 37.2C120.847 36.7356 120.821 36.2002 120.821 35.6419C120.814 32.5865 120.791 29.5311 120.773 26.4758C121.101 26.2398 121.078 26.0621 120.684 25.9454C120.663 25.7348 120.64 25.5216 120.62 25.311C120.852 24.8669 120.689 24.6562 120.213 24.6359C119.82 23.6995 119.107 23.0677 118.241 22.5804C117.765 21.8597 117.162 21.4638 116.265 21.8166C115.916 21.8166 115.565 21.8166 115.216 21.8166C114.388 21.4968 113.876 21.9384 113.438 22.5525C113.326 22.5728 113.212 22.5931 113.097 22.6134C112.422 22.3571 111.933 22.6439 111.521 23.1489C110.884 23.9279 110.403 24.7172 110.102 25.75C109.796 26.8057 109.532 27.808 109.537 28.9018C109.547 31.1146 109.542 33.3275 109.537 35.5404C109.537 36.0098 109.656 36.5326 109.137 36.8397C108.574 37.1721 108.113 36.8625 107.652 36.5783C107.629 33.8249 107.609 31.069 107.586 28.3156C107.581 27.77 107.576 27.2269 107.571 26.6813C107.95 25.9885 107.965 25.1739 107.586 24.5953C106.33 22.6794 104.756 21.2532 102.172 21.4638C101.278 21.5349 100.623 21.9359 99.8693 22.2683C97.7606 23.1945 96.337 25.212 96.3293 27.5213C96.3217 30.2924 96.314 33.061 96.337 35.8297C96.342 36.5275 96.1001 36.8117 95.3794 36.8092C94.5339 36.8067 94.5695 36.2763 94.5695 35.7028C94.5746 30.871 94.5721 26.0393 94.5695 21.2101C94.5695 20.8269 94.6383 20.4361 94.46 20.0681L94.5084 20.0123C94.73 20.0453 94.9566 20.129 95.1706 20.1011C95.9346 20.0021 96.2504 20.299 96.1459 21.068C96.0925 21.4638 96.2656 21.8293 96.4185 22.1795C96.505 22.3749 96.7623 22.6794 96.91 22.5474C97.3735 22.1313 98.0942 22.1668 98.4686 21.677C99.2886 20.5985 100.468 20.1772 101.7 20.129C103.33 20.063 104.991 19.8499 106.514 20.9512C107.145 21.408 107.81 21.8394 108.33 22.4002C108.997 23.1184 109.295 23.2047 110.069 22.5652C111.026 21.776 111.887 20.8523 113.219 20.6391C113.571 20.5833 113.886 20.261 113.96 19.8321C115.465 19.8905 116.968 19.5479 118.473 19.8194C118.677 20.2686 119.049 20.299 119.466 20.2077C119.657 20.3295 119.846 20.4513 120.037 20.5706C120.042 20.8903 120.195 20.9208 120.439 20.7761C121.758 21.5324 122.53 22.6845 122.889 24.136C122.719 24.3314 122.706 24.4888 122.999 24.5674C123.037 24.8415 123.075 25.1156 123.113 25.3896C122.673 25.7982 123.131 26.2169 123.123 26.6306C123.083 29.7138 123.101 32.7971 123.103 35.8804C123.103 36.7052 122.713 37.1315 121.873 37.1391C121.649 37.1391 121.427 37.1746 121.203 37.1949V37.2Z" fill="white"/>
<path d="M254.565 48.5739C254.672 49.7819 254.367 51.175 254.751 52.5378C254.818 52.7763 254.787 53.1138 255.131 53.1164C255.429 53.1189 255.38 52.7789 255.459 52.5936C255.915 51.5532 256.735 51.1065 257.83 51.0837C258.51 51.071 259.19 51.0837 259.868 51.0532C260.242 51.038 260.777 51.0482 260.718 50.5254C260.667 50.0838 260.744 49.4748 260 49.3251C259.15 49.1551 258.335 49.2337 257.52 49.4342C257.163 49.5205 256.812 49.5611 256.465 49.5002C255.768 49.3784 255.533 48.7465 255.992 48.2186C256.241 47.9294 256.532 47.6375 256.865 47.465C258.943 46.3915 262.338 47.3355 263.563 49.3124C263.823 49.7336 263.889 50.2133 263.889 50.7056C263.889 52.1241 263.833 53.5452 263.907 54.9587C263.981 56.3545 263.25 56.5321 262.101 56.2174C261.47 56.0449 260.996 56.0322 260.385 56.2504C259.404 56.6006 258.373 56.56 257.329 56.3773C256.292 56.1946 255.765 55.5652 255.416 54.6745C255.352 54.5121 255.378 54.2431 255.108 54.2583C254.884 54.271 254.838 54.4893 254.762 54.6694C254.059 56.3342 254.056 56.3265 252.212 56.1108C251.662 56.0474 251.125 56.1438 250.587 56.2885C247.111 57.2325 244.335 54.6441 244.694 51.3552C245.03 48.2999 247.595 46.5412 250.582 47.3838C251.357 47.602 251.548 47.2822 251.639 46.7468C251.728 46.2139 251.683 45.6556 251.677 45.1075C251.667 44.0112 252.462 44.1178 253.175 44.1076C253.885 44.0975 254.583 44.1025 254.571 45.1151C254.555 46.2113 254.568 47.3051 254.568 48.5689L254.565 48.5739ZM251.657 51.8805C251.657 51.5608 251.69 51.236 251.652 50.9187C251.514 49.8072 250.02 48.8531 249.052 49.2464C247.883 49.721 247.035 52.1901 247.768 53.2153C248.138 53.733 248.53 54.3243 249.334 54.37C250.977 54.4613 251.677 53.7432 251.66 51.8831L251.657 51.8805ZM259.781 52.4413C258.487 52.449 257.68 52.9616 257.779 53.733C257.886 54.5578 258.65 54.6314 259.257 54.6669C260.285 54.7303 260.983 54.0883 260.981 53.2864C260.981 52.3246 260.273 52.487 259.781 52.4413Z" fill="white"/>
<path d="M212.824 24.9097C212.824 28.4523 212.829 31.9949 212.824 35.5375C212.819 37.3621 212.412 37.4865 211.034 37.3951C210.293 37.3469 209.546 37.352 208.805 37.3951C207.906 37.4484 207.573 36.9764 207.563 36.1796C207.547 35.1493 207.557 34.119 207.557 33.0887C207.557 26.7115 207.557 20.3368 207.557 13.9596C207.557 12.7162 207.7 12.5791 208.956 12.5741C209.829 12.5715 210.703 12.607 211.574 12.5639C212.485 12.5182 212.847 12.876 212.839 13.8023C212.809 17.5048 212.827 21.2098 212.827 24.9123L212.824 24.9097Z" fill="white"/>
<path d="M144.513 25.2628C144.567 25.0903 144.618 24.9177 144.671 24.7451C145.109 24.7629 145.308 24.5853 145.168 24.1336C145.208 24.0219 145.252 23.9103 145.293 23.7986C145.631 23.7859 145.68 23.6184 145.532 23.3494C145.613 23.2149 145.697 23.0804 145.779 22.9485C146.505 23.0322 146.538 22.5399 146.551 22.0298C146.675 21.9385 146.803 21.8471 146.928 21.7583C147.233 21.908 147.391 21.837 147.35 21.4741C147.473 21.2431 147.664 21.0858 147.9 20.9818C148.173 21.1315 148.338 21.0833 148.346 20.7432C148.463 20.7026 148.58 20.662 148.698 20.6214C149.584 20.8904 150.093 20.2458 150.687 19.8068C152.179 19.6622 153.669 19.6546 155.159 19.8119C155.673 20.4387 156.251 20.9386 157.15 20.7661C157.275 20.8168 157.4 20.8676 157.524 20.9158C157.527 21.0097 157.496 21.1264 157.54 21.1899C157.942 21.7761 158.564 22.3039 159.198 22.177C159.972 22.0222 159.804 21.1619 159.806 20.5326C159.814 18.2461 159.827 15.9572 159.801 13.6707C159.794 12.9982 160.058 12.7749 160.718 12.7597C161.625 12.7419 161.574 13.3104 161.574 13.9169C161.569 21.1975 161.571 28.4806 161.571 35.7612C161.571 35.9211 161.569 36.0835 161.571 36.2434C161.571 36.7129 161.35 36.9311 160.868 36.9742C160.058 37.0478 159.725 36.7103 159.806 35.916C159.85 35.5075 159.761 35.1319 159.366 34.9212C158.933 34.6903 158.747 35.0938 158.469 35.2867C157.761 35.779 157.086 36.5276 156.307 36.6646C154.848 36.9235 153.386 37.4539 151.853 37.1341C150.852 36.926 149.734 36.9489 148.871 36.4921C147.829 35.9389 146.744 35.2791 146.095 34.1904C145.351 32.9419 144.366 31.8024 144.478 30.1961C144.536 29.3612 144.498 28.5212 144.483 27.6838C144.478 27.4148 144.607 27.09 144.261 26.9098C144.292 26.585 144.322 26.2576 144.353 25.9328C144.796 25.8008 144.692 25.5394 144.516 25.2578L144.513 25.2628ZM159.969 28.709C159.921 27.43 160.28 26.0368 158.935 25.1258C158.872 25.0827 158.877 24.9456 158.833 24.8593C157.782 22.8698 156.007 21.8623 153.885 21.5324C152.561 21.3269 151.298 21.6568 149.981 22.2455C148.109 23.083 147.006 24.565 146.367 26.184C145.453 28.5035 146.125 30.8813 147.353 33.0434C147.383 33.0967 147.442 33.1398 147.498 33.1677C148.127 33.4646 148.54 34.0584 149.016 34.5025C150.075 35.4922 151.448 35.4262 152.637 35.9109C153.307 36.1825 154.091 35.9389 154.792 35.4161C155.457 34.9187 156.396 35.1344 157.158 34.3833C158.798 32.7718 160.224 31.1934 159.969 28.709Z" fill="white"/>
<path d="M268.654 28.45C268.654 26.0011 268.654 23.5522 268.654 21.1034C268.654 20.4563 268.57 19.6569 269.364 19.497C270.225 19.3245 271.292 19.1697 271.875 20.0223C272.54 20.9892 273.217 20.5629 273.737 20.1238C274.368 19.5909 275.041 19.459 275.782 19.4437C276.979 19.4209 278.176 19.459 279.373 19.431C280.942 19.3955 282.047 20.3142 283.111 21.2506C283.753 21.8165 284.453 21.9205 285.029 21.3064C285.946 20.3319 287.092 19.6341 288.383 19.5097C290.207 19.3346 292.066 19.2661 293.889 19.6087C295.501 19.9107 297.317 22.0296 297.849 23.5802C299.301 27.8054 298.31 32.1296 298.55 36.398C298.631 37.8648 297.162 38.2581 295.929 37.9891C295.634 37.9231 295.486 37.6516 295.415 37.342C295.305 36.87 295.229 36.4031 295.231 35.9133C295.241 33.0457 295.303 30.1756 295.206 27.3105C295.152 25.7194 294.572 24.0978 293.255 23.2325C292.249 22.5702 290.92 22.1286 289.493 22.5473C288.1 22.9533 286.937 23.5015 286.04 24.712C285.462 25.4936 285.406 26.3158 285.391 27.1557C285.345 30.0233 285.375 32.8909 285.363 35.7585C285.358 37.1872 284.945 37.7962 283.891 38.0145C282.617 38.2784 282.026 37.847 282.014 36.5452C281.986 33.774 281.996 31.0029 282.004 28.2317C282.004 27.6176 282.047 26.9781 281.818 26.4173C281.377 25.3438 281.232 24.0598 280.147 23.3721C278.996 22.6437 277.763 22.2149 276.327 22.5245C274.85 22.8442 273.714 23.5091 272.756 24.7323C271.936 25.7803 272.081 26.9248 272.033 28.0135C271.913 30.7161 271.982 33.4264 272 36.1315C272.005 36.8801 271.753 37.4714 271.096 37.8216C269.853 38.4839 268.974 38.0424 268.738 36.6594C268.679 36.3117 268.648 35.9564 268.646 35.6062C268.638 33.2208 268.641 30.8379 268.641 28.4525L268.654 28.45ZM269.158 28.3002C269.158 30.8785 269.153 33.4593 269.163 36.0376C269.163 36.4614 269.201 36.903 269.784 36.9588C270.281 37.0045 270.714 36.8903 270.864 36.365C270.941 36.096 270.879 35.7889 270.907 35.4996C271.241 32.2108 270.324 28.8839 271.603 25.5875C272.504 23.2655 274.274 21.5119 276.785 21.4993C277.172 21.4993 277.562 21.4993 277.949 21.5018C280.244 21.5246 282.508 23.7781 282.518 26.0696C282.531 29.3255 282.543 32.5838 282.518 35.8397C282.51 36.6365 282.854 36.8928 283.577 36.7786C284.229 36.6746 284.089 36.1493 284.12 35.7153C284.39 32.0509 283.412 28.2926 285.042 24.7221C285.462 23.8035 286.605 22.5803 287.617 22.4636C288.019 22.4179 288.355 22.2453 288.696 22.0575C290.489 21.0704 293.387 22.2403 294.256 23.4025C295.078 24.5013 295.631 25.7651 295.608 27.2344C295.56 30.201 295.588 33.1675 295.603 36.1341C295.606 36.738 295.705 37.3115 296.538 37.3166C297.304 37.3217 297.852 37.0096 297.837 36.2254C297.755 32.429 298.035 28.6301 297.671 24.8312C297.416 22.1794 294.465 19.6747 291.961 19.7838C291.187 19.8168 290.408 19.7838 289.631 19.7939C288.844 19.8041 288.154 20.0858 287.426 20.3877C286.315 20.8471 285.5 21.6515 284.571 22.324C284.018 22.725 283.651 22.7935 283.152 22.1235C282.266 20.9334 281.031 20.1441 279.533 19.9259C277.119 19.5732 274.778 19.6087 272.761 21.3115C272.102 21.8672 271.493 21.5551 271.361 20.7151C271.228 19.8777 270.592 19.8015 269.901 19.7889C269.183 19.7762 269.16 20.2304 269.16 20.7557C269.168 23.2706 269.163 25.7854 269.165 28.3002H269.158Z" fill="white"/>
<path d="M244.651 19.7586C245.843 19.6013 247.029 19.8373 248.219 19.7814C248.14 20.2687 248.499 20.3727 248.84 20.4819C249.574 20.7153 250.429 20.7711 251.017 21.2C252.383 22.1973 253.083 23.8214 253.182 25.344C253.417 28.8968 253.256 32.4749 253.279 36.0429C253.282 36.6342 253.06 36.8347 252.482 36.822C251.924 36.8093 251.692 36.5809 251.591 36.0378C251.532 35.7308 251.45 35.1268 250.895 35.4085C250.508 35.6039 250.101 35.647 249.714 35.7968C249.278 35.9668 249.036 36.1723 249.304 36.6494C249.278 36.6875 249.245 36.7154 249.204 36.7332C248.084 36.4718 246.983 36.8575 245.863 36.8347C244.006 36.7966 242.117 37.195 240.538 35.7257C240.125 35.34 239.713 35.0329 239.601 34.4619C239.476 33.8351 239.203 33.1931 239.259 32.5815C239.361 31.4599 239.221 30.125 240.217 29.3688C241.307 28.5415 242.517 27.8868 244.06 28.0035C245.921 28.1431 247.806 28.0568 249.678 28.0137C251.435 27.9731 252.107 26.7702 251.272 25.2806C251.102 24.9786 250.972 24.6386 250.893 24.3011C250.646 23.2251 249.021 21.6466 247.921 21.5223C245.44 21.2381 243.1 21.6137 240.976 23.0246C240.464 23.3647 240.061 22.8546 239.756 22.5957C239.417 22.3064 239.629 21.9385 240.005 21.6517C240.624 21.1823 241.325 21.0046 242.058 20.8879C243.021 20.7356 243.854 20.2941 244.646 19.7586H244.651ZM242.29 34.4467C242.438 34.5964 242.588 34.7436 242.736 34.8933C243.4 35.4567 244.18 35.8094 245.04 35.8094C247.997 35.812 250.348 34.5634 251.361 31.5994C251.746 30.4778 251.112 29.0465 250.06 29.0389C247.562 29.0237 245.028 28.676 242.608 29.719C241.691 30.1149 241.2 30.7417 241.182 31.6908C241.162 32.7439 240.866 33.9519 242.29 34.4467Z" fill="white"/>
<path d="M69.354 31.5283C68.6766 31.5283 67.9839 31.442 67.3243 31.5436C65.7683 31.7846 64.6935 30.295 64.7063 29.0135C64.719 27.6634 64.6986 26.3109 64.7139 24.9608C64.7292 23.6793 65.483 22.6591 66.736 22.5627C68.7861 22.4054 70.8515 22.314 72.9042 22.6464C73.5714 22.7556 73.8694 23.1286 73.9866 23.796C74.3151 25.684 74.203 27.5848 74.1139 29.4677C74.04 31.0157 73.3524 31.508 71.776 31.5258C70.9687 31.5334 70.1614 31.5258 69.354 31.5258V31.5283Z" fill="white"/>
<path d="M244.651 19.7583C243.859 20.2937 243.026 20.7378 242.063 20.8875C241.327 21.0043 240.627 21.1819 240.011 21.6514C239.634 21.9381 239.422 22.3061 239.761 22.5954C240.064 22.8542 240.469 23.3643 240.981 23.0243C243.105 21.6133 245.445 21.2352 247.926 21.522C249.023 21.6488 250.651 23.2273 250.898 24.3007C250.974 24.6382 251.107 24.9757 251.277 25.2803C252.113 26.7724 251.44 27.9727 249.683 28.0133C247.811 28.0565 245.927 28.1402 244.065 28.0032C242.522 27.889 241.312 28.5412 240.222 29.3685C239.226 30.1247 239.369 31.457 239.264 32.5812C239.208 33.1928 239.481 33.8348 239.606 34.4616C239.718 35.0351 240.13 35.3422 240.543 35.7254C242.122 37.1972 244.011 36.7988 245.868 36.8343C246.989 36.8572 248.089 36.4714 249.209 36.7328C247.192 37.7504 245.094 38.0626 242.899 37.4307C242.221 37.2353 241.523 37.0932 240.912 36.6922C238.182 34.9082 237.818 31.9391 239.506 29.3203C239.98 28.5869 240.902 28.026 241.893 27.8002C243.5 27.4322 245.107 27.1125 246.775 27.2191C247.643 27.2749 248.522 27.2317 249.393 27.2292C250.661 27.2216 251.002 26.7369 250.737 25.5188C250.536 24.5951 250.427 23.6358 249.563 23.0699C248.117 22.1209 246.489 21.5499 244.806 22.0473C243.601 22.4025 242.303 22.6487 241.258 23.4937C240.688 23.9556 239.733 23.7602 239.435 23.0801C239.002 22.0879 238.21 21.9534 237.308 21.9407C236.855 21.9331 236.402 21.9407 235.951 21.9407C234.398 21.9407 234.275 22.0422 234.27 23.6435C234.257 27.8002 234.27 31.9569 234.263 36.1136C234.263 36.6973 234.257 37.3444 233.567 37.555C232.844 37.7758 232.251 37.4814 231.797 36.8749C231.535 36.5247 231.604 36.139 231.604 35.7609C231.599 31.9594 231.601 28.1555 231.601 24.354C231.601 24.1282 231.609 23.9023 231.601 23.6765C231.55 22.3797 231.135 21.9787 229.819 21.9458C229.658 21.9407 229.495 21.9407 229.335 21.9305C228.507 21.8772 228.094 21.4382 228.145 20.6135C228.199 19.7151 228.777 19.6009 229.513 19.7456C229.314 20.1871 228.616 20.4663 228.996 21.0956C229.319 21.6311 229.903 21.489 230.407 21.4966C231.889 21.5194 232.151 21.7377 232.388 23.245C232.437 23.5597 232.419 23.8871 232.419 24.2094C232.419 28.0438 232.419 31.8782 232.419 35.7127C232.419 36.2405 232.368 36.7683 233.152 36.7988C234.018 36.8318 233.847 36.2304 233.847 35.7431C233.853 31.7488 233.853 27.752 233.847 23.7577C233.847 23.3059 233.898 22.8669 233.975 22.4178C234.089 21.7503 234.428 21.4788 235.093 21.494C236.16 21.5194 237.227 21.4991 238.294 21.5143C238.763 21.522 239.112 21.4763 239.109 20.8596C239.106 20.2836 238.91 20.0298 238.314 20.0704C237.8 20.1059 237.28 20.0806 236.763 20.0806C233.791 20.0882 233.318 19.4918 233.919 16.505C234.173 15.2361 235.238 14.3352 236.524 14.3479C237.426 14.3555 238.335 14.2439 239.224 14.5053C239.481 14.5814 239.741 14.5611 239.927 14.3226C240.044 14.1728 240.028 14.0028 239.904 13.8861C239.491 13.5029 239.201 12.8609 238.523 12.9471C237.061 13.1324 235.556 12.4599 234.117 13.6323C233.165 14.4063 232.342 14.9925 232.411 16.3197C232.452 17.1242 232.439 17.9311 232.411 18.7356C232.375 19.7659 231.726 20.1288 230.712 19.7151C231.448 19.3878 231.673 18.8396 231.632 18.0352C231.591 17.2181 231.619 16.4085 231.83 15.5635C232.465 13.0309 235.488 12.0767 237.652 12.432C238.256 12.531 238.877 12.4574 239.468 12.6984C240.278 13.0283 240.65 13.7668 240.354 14.5535C240.031 15.4112 239.707 15.533 238.676 15.0763C236.42 14.0815 234.696 15.2412 234.342 16.8247C234.191 17.5023 234.263 18.2357 234.288 18.9437C234.306 19.5172 234.708 19.6745 235.228 19.6695C236.328 19.6593 237.428 19.6745 238.528 19.6644C238.982 19.6593 239.44 19.7532 239.578 20.1948C239.781 20.8393 240.133 20.7683 240.68 20.7124C241.679 20.6109 242.461 19.9562 243.426 19.7963C243.843 19.7278 244.243 19.6162 244.661 19.7583H244.651Z" fill="white"/>
<path d="M279.567 45.2851C279.149 46.7773 278.393 48.0334 277.83 49.3784C276.938 51.5126 276.083 53.6823 274.998 55.7353C274.631 56.4255 273.898 56.324 273.269 56.2986C272.734 56.2758 272.247 56.1971 271.972 55.5297C271.129 53.5047 270.083 51.5557 269.324 49.5027C268.891 48.3303 268.226 47.267 267.89 46.054C267.745 45.5287 267.839 45.1836 268.241 44.8791C268.644 44.5746 269.143 44.5365 269.512 44.7979C270.108 45.2242 270.686 45.7064 270.9 46.4778C271.417 48.3608 272.469 50.0255 273.113 51.8577C273.302 52.3957 273.76 52.2992 273.987 51.8881C274.384 51.1649 274.881 50.5178 275.168 49.7057C275.708 48.1882 276.261 46.6504 277.173 45.2927C277.41 44.94 277.707 44.6634 278.196 44.6684C279.062 44.6761 279.821 44.4451 280.443 43.7701C280.858 43.3184 281.482 43.3336 281.955 43.6483C282.353 43.9148 282.941 44.2193 282.867 44.7877C282.73 45.8561 281.319 46.422 280.333 45.8561C280.091 45.7165 279.882 45.5211 279.569 45.2826L279.567 45.2851Z" fill="white"/>
<path d="M135.969 29.6225C134.225 29.6225 132.478 29.6225 130.733 29.6225C130.125 29.6225 129.389 29.4753 129.121 30.1782C128.887 30.7898 129.147 31.475 129.524 31.98C130.906 33.835 132.577 34.9947 135.116 34.9237C137.1 34.8704 138.763 34.3755 140.253 33.1524C140.597 32.8707 140.846 32.8859 141.177 33.1727C142.438 34.2766 142.298 35.2206 140.844 36.157C138.473 37.6847 135.924 38.3216 133.16 37.7075C130.224 37.0553 127.909 35.6012 126.536 32.7311C126.019 31.6501 125.828 30.6426 125.826 29.5184C125.826 28.9398 125.882 28.3536 125.816 27.7801C125.586 25.783 126.531 24.2426 127.588 22.6692C128.681 21.04 130.229 20.1265 132.014 19.7001C133.705 19.2966 135.564 19.2281 137.202 19.6951C139.708 20.4081 141.707 21.9511 142.588 24.6004C142.858 25.415 143.388 26.123 143.579 26.9909C143.984 28.8307 143.408 29.5946 141.498 29.6047C139.654 29.6149 137.813 29.6047 135.969 29.6047V29.6098V29.6225ZM135.521 28.8358V28.8459C137.462 28.8459 139.402 28.8637 141.34 28.8383C142.479 28.8231 143.082 28.2394 142.784 27.3335C142.265 25.7627 142 24.0802 140.798 22.7809C139.716 21.611 138.46 20.5376 136.975 20.1924C133.428 19.3702 130.392 20.0605 128.011 23.2097C127.099 24.4177 126.447 25.6865 126.297 27.1685C126.172 28.4095 125.846 29.8001 126.475 30.8685C127.084 31.8988 127.257 33.0864 128.075 34.0659C129.098 35.2916 130.56 35.7611 131.696 36.7381C131.737 36.7737 131.821 36.7584 131.884 36.7635C132.977 36.8346 134.09 37.0706 135.157 36.9386C136.82 36.733 138.697 37.3015 140.072 35.8068C140.151 35.7205 140.304 35.685 140.426 35.6621C141.254 35.5226 141.205 34.8222 141.104 34.3299C140.935 33.528 140.36 34.104 139.945 34.1446C139.229 34.2157 139.01 35.0658 138.361 35.1774C136.491 35.4972 134.599 35.6063 132.717 35.3399C132.266 35.2764 131.716 35.3297 131.352 34.9465C130.216 33.7589 128.844 32.7971 128.487 30.975C128.184 29.4398 128.495 28.8383 130.086 28.8332C131.897 28.8282 133.708 28.8332 135.519 28.8332L135.521 28.8358Z" fill="white"/>
<path d="M174.781 35.8676C173.429 35.0098 172.499 33.8247 172.003 32.3072C172.344 31.787 171.988 31.2845 171.957 30.777C171.898 29.8583 171.168 28.9905 171.542 28.0693C171.855 27.3004 171.86 26.5035 172.033 25.727C172.135 25.2651 172.314 24.8667 172.589 24.5216C173.414 23.4837 174.071 22.2935 175.286 21.6007C176.485 20.9156 177.789 20.3497 179.101 20.1593C180.555 19.9462 182.022 20.0832 183.55 20.743C184.963 21.352 185.849 22.2301 186.868 23.3543C186.13 23.4685 185.582 23.6055 185.006 23.1639C183.876 22.2961 182.725 21.4409 181.194 21.3723C180.033 21.3191 178.79 21.1896 177.812 21.7911C177.015 22.2808 176.065 22.5346 175.421 23.4152C174.827 24.2222 174.101 24.986 173.842 25.9199C173.381 27.5744 173.646 29.3051 173.707 31.0054C173.717 31.3023 173.857 31.6119 174.068 31.8834C174.835 32.8807 175.507 33.9389 176.567 34.7028C177.72 35.5351 179.141 35.9031 180.356 35.832C181.93 35.7407 183.669 35.3778 184.874 34.0379C185.045 33.8476 185.251 33.6928 185.416 33.4999C185.59 33.2969 185.923 33.1852 185.946 33.4086C186.002 33.9262 187.426 34.3171 186.124 34.9895C185.951 35.0784 185.804 35.4057 186.015 35.6772C185.987 35.7229 185.951 35.7559 185.905 35.7788C185.577 35.5428 185.218 35.6671 185.024 35.8879C184.143 36.8903 182.974 36.7152 181.831 36.8395C180.705 36.9613 179.605 36.8395 178.502 36.7735C177.524 36.7177 176.46 36.8344 175.652 35.9919C175.497 35.8295 175.138 35.4083 174.789 35.8777L174.781 35.8676Z" fill="white"/>
<path d="M197.49 53.0223C197.49 53.6669 197.493 54.3115 197.49 54.956C197.485 56.164 197.095 56.6461 196.003 56.2553C194.969 55.8848 194.139 56.2249 193.237 56.4177C192.252 56.6284 191.302 56.4761 190.37 56.2223C189.562 56.0016 188.742 54.5931 188.78 53.6441C188.819 52.6696 189.644 51.5505 190.52 51.2891C191.467 51.0049 192.44 51.0759 193.408 51.0582C193.823 51.0505 194.33 51.0658 194.355 50.4846C194.378 49.9543 194.246 49.4721 193.584 49.3275C192.845 49.165 192.122 49.0813 191.391 49.3401C191.207 49.4036 191.019 49.5 190.836 49.4975C190.28 49.4899 189.664 49.4467 189.427 48.8656C189.183 48.2692 189.741 47.9825 190.145 47.782C192.32 46.6984 195.799 46.7289 197.205 49.3884C197.442 49.8375 197.5 50.3679 197.495 50.8907C197.488 51.5987 197.495 52.3092 197.495 53.0172L197.49 53.0223ZM192.83 54.7353C193.731 54.7353 194.696 54.0298 194.722 53.4157C194.752 52.6747 194.332 52.4234 193.095 52.4437C193.031 52.4437 192.965 52.4437 192.901 52.4437C192.043 52.4742 191.246 53.0731 191.353 53.6948C191.498 54.5297 192.262 54.5779 192.83 54.7327V54.7353Z" fill="white"/>
<path d="M315.944 30.6197C315.944 32.457 315.944 34.2917 315.944 36.129C315.944 36.804 315.852 37.5222 315.088 37.6745C314.284 37.8343 313.354 37.9638 312.878 36.9918C312.582 36.3904 312.412 36.365 311.755 36.7127C310.166 37.5501 308.47 38.149 306.58 37.9054C305.487 37.7633 304.494 37.3243 303.44 37.0705C302.334 36.804 300.666 34.6521 300.592 33.4365C300.506 32.0078 300.506 30.5943 301.484 29.4092C302.075 28.6936 302.701 27.9729 303.643 27.7445C305.391 27.3258 307.138 26.8995 308.974 27.067C309.903 27.1507 310.848 27.0568 311.785 27.0898C312.402 27.1101 312.677 26.7523 312.801 26.26C313.125 24.9886 312.009 23.4152 310.871 22.7656C308.523 21.4257 306.386 22.4129 304.186 23.0371C303.641 23.1919 303.407 23.8898 302.699 23.8416C302.205 23.8086 301.795 23.7451 301.593 23.2528C301.392 22.758 301.038 22.2555 301.479 21.7251C301.868 21.2557 302.322 20.9004 302.887 20.5984C305.357 19.2814 308.024 19.393 310.637 19.6163C312.631 19.7864 314.133 20.9537 315.193 22.7631C316.354 24.7424 315.789 26.8386 315.937 28.8865C315.98 29.4625 315.944 30.0462 315.942 30.6248L315.944 30.6197ZM315.371 30.6958C315.371 29.0184 315.402 27.341 315.361 25.6662C315.33 24.4278 314.981 23.1868 314.235 22.253C312.97 20.672 311.195 19.9082 309.124 19.9361C308.413 19.9462 307.7 19.9538 306.987 19.9361C306.516 19.9259 306.068 20.0071 305.706 20.2939C305.187 20.705 304.616 20.908 303.957 20.9765C303.399 21.0324 302.918 21.1998 302.472 21.6871C302.146 22.0449 301.738 22.2707 302.044 22.7351C302.375 23.2376 302.831 23.0447 303.312 22.7935C305.098 21.8622 306.972 21.1948 309.03 21.5272C309.758 21.6439 310.494 21.6744 311.179 22.1972C312.389 23.1209 313.127 24.1968 313.438 25.7042C313.716 27.0593 313.135 28.0084 311.722 28.0186C309.488 28.0338 307.257 28.0313 305.024 28.0516C303.638 28.0643 302.205 29.3179 301.708 30.607C301.199 31.9368 301.313 33.1701 301.774 34.4389C302.202 35.6215 303.009 36.5198 304.239 36.6949C305.999 36.9461 307.779 37.2938 309.585 36.832C310.171 36.6822 310.792 36.7076 311.299 36.294C312.216 35.5428 312.664 35.591 313.459 36.4767C313.805 36.8624 314.21 37.0654 314.75 36.8802C315.272 36.7 315.381 36.3295 315.376 35.822C315.356 34.1141 315.369 32.4037 315.369 30.6958H315.371Z" fill="white"/>
<path d="M230.705 19.7126C231.721 20.1263 232.371 19.7634 232.404 18.7331C232.432 17.9286 232.445 17.1191 232.404 16.3172C232.335 14.9925 233.158 14.4063 234.11 13.6298C235.546 12.4599 237.054 13.1299 238.516 12.9446C239.196 12.8584 239.484 13.5004 239.896 13.8836C240.024 14.0003 240.036 14.1729 239.919 14.3201C239.733 14.5586 239.471 14.5789 239.216 14.5028C238.328 14.2414 237.418 14.353 236.517 14.3454C235.231 14.3327 234.166 15.2336 233.911 16.5025C233.31 19.4893 233.784 20.0857 236.756 20.0781C237.273 20.0781 237.793 20.1009 238.307 20.0679C238.903 20.0273 239.099 20.2811 239.102 20.8571C239.104 21.4738 238.755 21.5195 238.287 21.5118C237.22 21.4966 236.153 21.5144 235.086 21.4915C234.421 21.4763 234.082 21.7504 233.968 22.4153C233.891 22.8619 233.84 23.3035 233.84 23.7552C233.84 27.7495 233.843 31.7463 233.84 35.7406C233.84 36.2279 234.011 36.8293 233.145 36.7963C232.358 36.7658 232.411 36.238 232.411 35.7102C232.411 31.8757 232.411 28.0413 232.411 24.2069C232.411 23.8846 232.432 23.5572 232.381 23.2425C232.144 21.7326 231.882 21.5144 230.4 21.4941C229.895 21.4865 229.312 21.6311 228.989 21.0931C228.609 20.4638 229.31 20.1872 229.506 19.7431C229.905 19.7329 230.305 19.7202 230.705 19.7101V19.7126Z" fill="white"/>
<path d="M136.557 52.9993C136.557 53.7733 136.537 54.5473 136.565 55.3187C136.588 55.943 136.15 56.3871 135.715 56.245C133.962 55.6689 132.289 56.5597 130.565 56.3643C129.034 56.1892 127.924 55.0929 127.937 53.5779C127.944 52.6516 129.154 51.3371 130.089 51.2508C131.115 51.1544 132.139 51.0301 133.178 51.0504C133.97 51.0681 134.138 50.6849 133.705 50.0175C133.119 49.1167 131.803 48.8527 130.16 49.4034C129.595 49.5912 129.203 49.5506 128.968 49.0075C128.688 48.3553 129.118 47.9417 129.597 47.6575C131.179 46.7211 134.441 47.1271 135.758 48.4518C136.405 49.0989 136.476 50.0125 136.545 50.8727C136.601 51.5782 136.555 52.2888 136.557 52.9993ZM132.21 54.7325C132.615 54.7985 132.959 54.5219 133.344 54.3671C134.046 54.0829 134.062 53.5043 133.952 52.913C133.835 52.2811 133.31 52.271 132.809 52.304C132.521 52.3217 132.238 52.3928 131.953 52.441C131.278 52.5577 130.425 53.3647 130.608 53.8038C130.876 54.4382 131.433 54.7655 132.208 54.7325H132.21Z" fill="white"/>
<path d="M182.049 52.3017C181.306 52.3017 180.557 52.2561 179.818 52.322C179.442 52.355 178.774 52.3068 178.767 52.7585C178.756 53.3574 178.909 54.0807 179.681 54.2989C180.397 54.4994 181.12 54.6415 181.871 54.3979C182.266 54.271 182.689 54.2177 183.101 54.1593C183.483 54.106 183.822 54.2304 184.01 54.578C184.199 54.9257 183.947 55.1922 183.758 55.4434C183.417 55.9002 182.964 56.1666 182.38 56.2478C180.142 56.56 178.092 56.4382 176.64 54.3243C175.904 53.2534 175.662 50.5406 176.439 49.4874C177.789 47.6578 179.464 46.7468 181.764 47.3634C183.394 47.7999 184.968 49.5788 185.108 51.1877C185.174 51.949 184.927 52.355 184.087 52.3017C183.409 52.2586 182.729 52.2941 182.049 52.2941V52.2992V52.3017ZM180.646 50.9415C181.036 50.7233 181.856 51.3146 181.891 50.3782C181.927 49.3961 181.168 49.3098 180.417 49.3149C179.839 49.32 179.194 49.2134 179.202 50.1269C179.21 51.2384 180.053 50.8147 180.646 50.9415Z" fill="white"/>
<path d="M77.9622 39.2681C77.4784 39.2681 76.9894 39.2326 76.5106 39.2732C74.8756 39.4102 74.514 38.5093 74.3994 37.2684C74.2924 36.1214 74.351 34.954 74.3943 33.7969C74.4248 32.9772 75.1506 32.2463 75.9554 32.1068C77.3001 31.8682 78.6397 31.9139 79.992 32.0915C80.9343 32.2159 81.4589 32.9061 81.5098 33.5989C81.6193 35.0911 81.7263 36.6086 81.4207 38.1109C81.2526 38.9331 80.7585 39.2402 79.9996 39.2579C79.3222 39.2732 78.6448 39.2605 77.9648 39.2605V39.2681H77.9622Z" fill="white"/>
<path d="M186.01 35.6699C185.801 35.4009 185.946 35.0735 186.119 34.9821C187.421 34.3097 185.997 33.9214 185.941 33.4012C185.918 33.1779 185.582 33.2895 185.411 33.4925C185.246 33.6854 185.04 33.8427 184.869 34.0305C183.664 35.3704 181.925 35.7333 180.351 35.8247C179.136 35.8957 177.715 35.5277 176.562 34.6954C175.502 33.9315 174.83 32.8733 174.063 31.876C173.854 31.6045 173.714 31.2949 173.702 30.998C173.64 29.2977 173.378 27.567 173.837 25.9125C174.096 24.9786 174.825 24.2148 175.416 23.4078C176.06 22.5272 177.01 22.276 177.807 21.7837C178.785 21.1822 180.028 21.3117 181.189 21.3649C182.717 21.436 183.868 22.2887 185.001 23.1566C185.577 23.5981 186.122 23.4611 186.863 23.3469C185.844 22.2252 184.961 21.3472 183.545 20.7356C182.014 20.0758 180.55 19.9388 179.096 20.1519C177.786 20.3448 176.48 20.9082 175.281 21.5933C174.066 22.2861 173.411 23.4788 172.584 24.5142C172.308 24.8593 172.13 25.2578 172.028 25.7196C171.855 26.4961 171.85 27.293 171.537 28.0619C171.162 28.9831 171.893 29.851 171.952 30.7696C171.985 31.2771 172.339 31.7821 171.998 32.2998C170.895 30.592 170.61 28.7318 171.145 26.7981C171.621 25.0725 172.148 23.319 173.592 22.0983C175.387 20.5833 177.313 19.449 179.834 19.5023C181.665 19.5404 183.379 19.7332 185.009 20.6189C185.834 21.0655 186.453 21.7075 187.036 22.3826C187.301 22.6896 187.63 23.286 187.108 23.5626C186.545 23.862 186.153 24.7959 185.218 24.1589C184.298 23.5347 183.443 22.8393 182.358 22.4206C180.226 21.5959 178.303 22.0755 176.625 23.3088C174.305 25.0141 173.561 27.4706 174.201 30.2367C174.774 32.7185 177.185 35.1116 180.066 35.043C182.001 34.9974 183.588 34.5279 184.966 33.2083C185.59 32.612 187.128 33.0281 187.362 33.8503C187.464 34.2082 187.52 34.6142 187.092 34.8832C186.715 35.1217 186.364 35.4009 186.002 35.6597L186.01 35.6699Z" fill="white"/>
<path d="M144.259 26.9149C144.605 27.0951 144.475 27.4199 144.48 27.6889C144.496 28.5263 144.534 29.3663 144.475 30.2012C144.363 31.8075 145.349 32.9495 146.093 34.1955C146.742 35.2867 147.827 35.9465 148.869 36.4972C149.732 36.9539 150.85 36.9311 151.851 37.1392C153.384 37.4589 154.846 36.9286 156.305 36.6697C157.084 36.5302 157.759 35.7815 158.467 35.2918C158.745 35.0989 158.933 34.6954 159.364 34.9263C159.758 35.137 159.847 35.5125 159.804 35.9211C159.723 36.7154 160.054 37.0555 160.866 36.9793C161.347 36.9362 161.569 36.7179 161.569 36.2485C161.569 36.0886 161.569 35.9262 161.569 35.7663C161.569 28.4857 161.569 21.2026 161.572 13.922C161.572 13.3155 161.623 12.7445 160.716 12.7648C160.056 12.7775 159.791 13.0008 159.799 13.6758C159.825 15.9623 159.814 18.2512 159.804 20.5377C159.804 21.167 159.97 22.0273 159.196 22.1821C158.561 22.309 157.94 21.7786 157.538 21.1949C157.492 21.129 157.525 21.0122 157.522 20.9209C157.586 20.9107 157.655 20.8752 157.711 20.893C158.736 21.1823 159.249 20.7974 159.249 19.7383C159.249 17.7082 159.244 15.678 159.249 13.6479C159.254 12.6277 159.539 12.3993 160.736 12.4095C161.852 12.4196 162.117 12.648 162.119 13.6555C162.124 21.0046 162.119 28.3537 162.119 35.7003C162.119 37.2102 161.742 37.8421 160.81 37.898C159.799 37.9563 159.389 37.4767 159.157 35.916C157.802 36.2358 156.733 37.162 155.409 37.5782C153.613 38.1416 151.92 38.2735 150.185 37.4894C149.35 37.1113 148.461 36.9616 147.633 36.4363C145.12 34.8324 144.022 32.5358 143.928 29.6962C143.897 28.7801 143.548 27.7726 144.249 26.9174L144.259 26.9149Z" fill="white"/>
<path d="M257.517 28.2724C257.517 25.8565 257.514 23.4407 257.517 21.0248C257.517 20.4183 257.435 19.7433 258.26 19.558C259.18 19.3525 260.303 19.7001 260.568 20.3422C260.835 20.9969 261.057 21.1567 261.76 20.7533C263.028 20.0224 264.329 19.3195 265.923 19.5301C266.682 19.6291 267.026 19.8803 267.034 20.6543C267.044 21.9612 266.833 22.3342 265.997 22.4789C264.691 22.7022 263.244 22.5423 262.287 23.7782C261.474 24.8237 260.759 25.8667 260.789 27.3081C260.85 30.2061 260.81 33.1067 260.802 36.0047C260.797 37.4816 259.587 38.2734 258.222 37.6999C257.934 37.5806 257.769 37.3522 257.695 37.0502C257.58 36.5808 257.509 36.1088 257.512 35.619C257.524 33.1701 257.517 30.7213 257.517 28.2749V28.2724ZM258.049 28.4526C258.049 30.9319 258.082 33.4112 258.031 35.8905C258.013 36.7457 258.406 36.865 259.088 36.7889C259.771 36.7127 259.832 36.2762 259.867 35.6977C260.074 32.3251 259.322 28.9068 260.423 25.5748C260.817 24.3796 261.378 23.1412 262.427 22.6717C263.535 22.1769 264.612 21.276 266.005 21.5095C266.377 21.5729 266.619 21.3192 266.624 20.9334C266.624 20.634 266.766 20.195 266.323 20.129C265.659 20.03 264.897 19.8752 264.329 20.233C263.137 20.9842 261.77 21.4257 260.7 22.385C260.114 22.9128 259.829 22.4357 259.684 21.9333C259.597 21.6338 259.63 21.2912 259.651 20.9715C259.689 20.4031 259.567 20.0681 258.872 20.0732C258.161 20.0782 258.029 20.3929 258.036 21.0172C258.064 23.4965 258.049 25.9758 258.049 28.4551V28.4526Z" fill="white"/>
<path d="M168.817 29.5945C168.817 31.7185 168.817 33.8451 168.817 35.9692C168.817 36.3904 168.773 36.799 168.666 37.2101C168.542 37.6872 168.223 37.7836 167.795 37.7836C167.368 37.7836 167.021 37.6923 166.917 37.2177C166.848 36.9056 166.744 36.5909 166.744 36.2762C166.731 31.7693 166.738 27.2598 166.731 22.7529C166.731 22.1236 166.927 21.6846 167.63 21.6262C168.442 21.5577 168.827 21.9003 168.822 22.7377C168.804 25.0241 168.817 27.3106 168.817 29.597V29.5945Z" fill="white"/>
<path d="M140.421 50.1878C140.421 51.8601 140.403 53.5325 140.428 55.2048C140.441 56.0549 140.031 56.329 139.236 56.329C138.442 56.329 138.042 56.0473 138.047 55.2022C138.067 51.8576 138.065 48.5129 138.047 45.1683C138.042 44.2902 138.526 44.0897 139.287 44.0948C140.039 44.0999 140.433 44.3765 140.426 45.1733C140.408 46.8457 140.421 48.518 140.421 50.1903V50.1878Z" fill="white"/>
<path d="M76.1794 15.8428C78.7592 15.8403 79.0368 16.0864 79.0368 18.3855C79.0368 20.8547 77.9825 21.7048 75.4892 21.2455C73.9001 20.9537 73.7778 20.809 73.7676 19.1697C73.7651 18.6545 73.7625 18.1419 73.7676 17.6268C73.7804 16.1854 74.1038 15.8529 75.5045 15.8428C75.7312 15.8428 75.9553 15.8428 76.1819 15.8428H76.1794Z" fill="white"/>
<path d="M94.4598 20.0654C94.638 20.4334 94.5693 20.8267 94.5693 21.2074C94.5744 26.0391 94.5744 30.8709 94.5693 35.7001C94.5693 36.2736 94.5336 36.804 95.3791 36.8065C96.0999 36.809 96.3418 36.5248 96.3367 35.827C96.3138 33.0584 96.3214 30.2872 96.3291 27.5186C96.3367 25.2093 97.7603 23.1919 99.869 22.2656C100.625 21.9332 101.277 21.5322 102.171 21.4612C104.759 21.2531 106.33 22.6767 107.586 24.5927C107.965 25.1712 107.95 25.9858 107.57 26.6786C107.181 25.9909 107.155 25.189 106.743 24.481C105.5 22.3493 103.06 21.484 100.801 22.4864C100.103 22.796 99.3444 22.9127 98.7332 23.4761C97.3758 24.7246 97.06 26.3665 96.9963 28.0363C96.897 30.6755 96.9479 33.3197 96.9861 35.9615C96.9963 36.6365 96.6958 37.073 96.2094 37.4156C95.4606 37.9434 94.554 37.6135 94.3019 36.7355C94.2153 36.4309 94.1796 36.1036 94.1771 35.7864C94.1695 30.8556 94.1695 25.9275 94.1771 20.9968C94.1771 20.6745 94.0014 20.2659 94.4572 20.0654H94.4598Z" fill="white"/>
<path d="M144.501 52.0505C144.501 53.1138 144.485 54.1771 144.506 55.2403C144.521 56.0346 144.131 56.3442 143.372 56.3189C142.646 56.296 142.114 56.1235 142.127 55.2251C142.152 53.1315 142.099 51.0354 142.16 48.9418C142.178 48.3708 142.048 47.5664 142.939 47.3862C143.95 47.1807 144.432 47.5562 144.483 48.6678C144.534 49.7945 144.493 50.9237 144.493 52.0505H144.498H144.501Z" fill="white"/>
<path d="M303.674 47.391C303.674 46.8759 303.684 46.3633 303.671 45.8481C303.651 45.0665 303.957 44.6351 304.805 44.6656C305.747 44.6986 306.305 45.1224 306.259 45.9395C306.152 47.792 306.007 49.6394 305.851 51.4894C305.803 52.0705 305.413 52.3065 304.843 52.2761C304.288 52.2482 303.878 52.0223 303.89 51.4234C303.916 50.0734 303.534 48.7462 303.674 47.3936V47.391Z" fill="white"/>
<path d="M249.306 36.6466C249.036 36.167 249.281 35.9615 249.716 35.794C250.103 35.6443 250.511 35.6011 250.898 35.4057C251.453 35.124 251.535 35.728 251.593 36.0351C251.695 36.5781 251.927 36.8065 252.485 36.8192C253.063 36.8319 253.287 36.634 253.282 36.0401C253.259 32.4722 253.419 28.894 253.185 25.3413C253.083 23.8161 252.385 22.192 251.02 21.1972C250.434 20.7684 249.576 20.7125 248.843 20.4791C248.501 20.37 248.14 20.2659 248.221 19.7787C249.563 19.6112 252.044 21.0881 252.693 22.3011C253.48 23.773 253.735 25.2981 253.694 26.9502C253.623 29.9472 253.676 32.9467 253.674 35.9462C253.674 36.5604 253.732 37.2709 253.042 37.5348C252.352 37.7962 251.7 37.5475 251.26 36.9182C250.702 36.1239 250.058 36.0452 249.309 36.6466H249.306Z" fill="white"/>
<path d="M113.96 19.8322C113.887 20.2585 113.571 20.5808 113.219 20.6392C111.887 20.8549 111.027 21.7786 110.069 22.5653C109.292 23.2048 108.994 23.1185 108.33 22.4003C107.81 21.8395 107.145 21.4081 106.514 20.9513C104.988 19.8474 103.33 20.0631 101.7 20.1291C100.468 20.1773 99.2887 20.5986 98.4686 21.6771C98.0968 22.1669 97.3761 22.1313 96.91 22.5475C96.7649 22.6769 96.5051 22.3724 96.4185 22.1795C96.2657 21.8293 96.0925 21.4639 96.146 21.068C96.2479 20.2991 95.9346 20.0022 95.1706 20.1012C94.9567 20.1291 94.73 20.0454 94.5085 20.0124C94.9236 19.3627 95.5501 19.6698 96.0722 19.7332C96.607 19.7992 96.5713 20.2991 96.5968 20.728C96.6554 21.672 97.1214 21.9512 97.8141 21.2863C100.012 19.1749 102.711 19.5251 105.296 19.7764C106.661 19.9083 107.932 20.7787 108.696 22.0603C108.997 22.5653 109.195 22.6262 109.616 22.1998C110.619 21.1797 111.875 20.5275 113.161 19.9413C113.385 19.8398 113.657 19.5911 113.958 19.8322H113.96Z" fill="white"/>
<path d="M107.652 36.5755C108.113 36.8597 108.574 37.1719 109.137 36.8369C109.656 36.5298 109.537 36.0071 109.537 35.5376C109.542 33.3247 109.547 31.1119 109.537 28.899C109.532 27.8078 109.796 26.8029 110.102 25.7472C110.403 24.7144 110.886 23.9252 111.521 23.1461C111.933 22.6411 112.422 22.3544 113.097 22.6107C110.782 24.0546 110.219 26.3233 110.186 28.8178C110.155 31.2007 110.186 33.5861 110.176 35.9715C110.173 36.9638 109.577 37.5754 108.671 37.5957C107.955 37.6109 107.578 37.3241 107.65 36.5755H107.652Z" fill="white"/>
<path d="M29.2765 34.2715C29.2994 34.4948 29.3402 34.7156 29.3402 34.9389C29.3427 41.981 29.3402 49.023 29.3478 56.0625C29.3478 56.8467 29.1746 57.4735 28.3011 57.6562C28.1203 57.6943 27.9064 57.707 27.8198 57.4634C28.8385 57.24 28.9632 56.5549 28.9582 55.6261C28.92 48.8581 28.9327 42.0875 28.9531 35.3195C28.9531 34.9719 28.6449 34.4542 29.2765 34.2715Z" fill="white"/>
<path d="M55.4033 57.8438C56.6181 56.1232 56.068 54.1642 56.0909 52.3117C56.1546 46.6425 56.1113 40.9733 56.1164 35.3041C56.1164 34.9539 56.1597 34.6012 56.1826 34.251C56.7556 34.4083 56.5162 34.8829 56.5162 35.2102C56.5315 42.2015 56.5162 49.1903 56.5366 56.1816C56.5366 57.0394 56.1724 57.5545 55.4058 57.8463L55.4033 57.8438Z" fill="white"/>
<path d="M165.684 16.7565C165.684 15.6476 166.68 14.5944 167.739 14.5894C168.616 14.5843 169.846 15.7872 169.846 16.65C169.846 17.7183 168.636 18.8679 167.523 18.8552C166.741 18.8476 165.684 17.6397 165.684 16.7565ZM168.939 16.6982C168.911 15.9318 168.531 15.5055 167.739 15.5105C166.851 15.5156 166.227 16.0561 166.25 16.7819C166.265 17.2565 167.103 18.1345 167.543 18.1396C168.287 18.1472 168.941 17.4722 168.939 16.7007V16.6982Z" fill="white"/>
<path d="M174.781 35.8675C175.13 35.398 175.489 35.8193 175.645 35.9817C176.449 36.8267 177.516 36.7075 178.494 36.7633C179.597 36.8267 180.7 36.9511 181.823 36.8293C182.966 36.7075 184.138 36.88 185.017 35.8777C185.21 35.6569 185.569 35.5325 185.898 35.7685C184.927 37.0145 183.471 37.3419 182.067 37.7225C180.045 38.2732 178.156 37.5246 176.261 36.9942C175.662 36.8267 175.14 36.4156 174.779 35.865L174.781 35.8675Z" fill="white"/>
<path d="M14.0238 59.0596C15.1877 59.156 15.8549 60.1508 16.8176 60.6355C17.9432 61.2014 19.0358 61.8383 20.1665 62.4144C23.024 63.8736 26.1233 64.4826 29.1794 65.2642C29.2253 65.2769 29.2533 65.3606 29.2889 65.4114C28.2804 65.8529 27.3661 65.3682 26.4468 65.084C26.1539 64.9927 25.8738 64.81 25.5529 64.7643C23.2124 64.4217 21.0961 63.3863 19.0154 62.3915C17.2582 61.5516 15.5824 60.4629 14.0315 59.2397C14.0009 59.2144 14.0264 59.123 14.0238 59.0621V59.0596Z" fill="white"/>
<path d="M32.9286 20.1138C33.662 20.4284 34.1332 21.0349 34.6222 21.6237C36.466 23.8289 38.6434 25.7144 40.6172 27.7953C40.9712 28.1684 41.2691 28.5896 41.6206 28.9652C42.405 29.8052 42.7259 29.8229 43.6758 29.153C43.7726 29.0845 43.9101 29.0743 44.0298 29.0388C43.6681 30.0666 42.5527 30.3711 41.6817 29.6123C41.1061 29.1124 40.6655 28.4627 40.1256 27.9171C38.6103 26.3844 37.0874 24.8618 35.5441 23.3569C34.6527 22.489 34.0415 21.3674 33.0152 20.6213C32.8573 20.5071 32.7758 20.3142 32.926 20.1138H32.9286Z" fill="white"/>
<path d="M1.54021 38.5522C1.76177 39.1994 2.08775 39.8312 2.18708 40.4961C2.43411 42.1304 3.06825 43.6428 3.61325 45.1731C4.23465 46.9164 5.18967 48.5152 6.12942 50.1165C6.65404 51.0123 7.50465 51.7152 7.73131 52.7861C6.63112 52.172 6.21855 50.997 5.64554 50.02C4.63703 48.2995 3.7635 46.5028 3.01476 44.6249C2.41883 43.1302 2.31951 41.5086 1.55803 40.0825C1.31355 39.6257 1.17602 39.0649 1.54021 38.5522Z" fill="white"/>
<path d="M2.42854 23.4785C2.74179 24.1688 2.47184 24.8489 2.19934 25.4148C1.38184 27.1099 1.51936 28.932 1.42258 30.7008C1.29779 32.9771 1.3309 35.266 1.56265 37.5449C1.58048 37.7276 1.51427 37.9205 1.48625 38.1082C0.895411 37.2429 1.08387 36.2202 1.03039 35.2914C0.859757 32.3147 0.987093 29.3304 1.39712 26.374C1.53719 25.3615 1.97777 24.4048 2.43109 23.4785H2.42854Z" fill="white"/>
<path d="M304.805 56.3367C304.015 56.4027 303.641 55.9967 303.664 55.1415C303.687 54.3117 304.339 53.5757 305.067 53.6265C305.523 53.657 306.429 54.5451 306.435 54.9689C306.442 55.6998 305.714 56.3444 304.807 56.3393L304.805 56.3367Z" fill="white"/>
<path d="M144.523 44.8005C144.5 45.577 143.994 46.0845 143.253 46.0718C142.664 46.0617 141.587 45.1684 141.587 44.6888C141.587 44.3691 142.758 43.3464 143.112 43.3565C143.861 43.3794 144.544 44.0772 144.521 44.8005H144.523Z" fill="white"/>
<path d="M121.203 37.1998C121.427 37.1795 121.649 37.1465 121.873 37.144C122.713 37.1364 123.103 36.7101 123.103 35.8853C123.101 32.802 123.083 29.7187 123.123 26.6355C123.129 26.2218 122.673 25.8031 123.113 25.3945C123.472 25.7549 123.541 26.2269 123.544 26.6913C123.556 29.8355 123.564 32.9771 123.544 36.1213C123.536 37.2683 122.275 37.9865 121.264 37.4587C121.213 37.4308 121.224 37.2886 121.203 37.1973V37.1998Z" fill="white"/>
<path d="M8.68883 11.8257C8.60224 12.8027 7.70325 13.2493 7.23465 13.9776C6.23633 15.5307 5.36026 17.137 4.47909 18.7536C3.72016 20.1442 3.55972 21.7988 2.49519 23.0321C2.3271 22.8824 2.29654 22.6565 2.38568 22.5017C2.97142 21.5019 3.21591 20.365 3.69215 19.3271C4.19131 18.2359 4.77451 17.1751 5.39846 16.1499C6.3433 14.5968 7.16589 12.9423 8.69138 11.8257H8.68883Z" fill="white"/>
<path d="M37.2323 0.29685C36.5473 0.555693 35.8393 0.398357 35.1415 0.40597C32.666 0.436422 30.183 0.29685 27.7381 0.799311C26.9563 0.959184 26.205 1.25609 25.4333 1.47433C25.1328 1.55808 24.817 1.69004 24.5241 1.43373C25.7848 0.839913 27.076 0.367905 28.4818 0.23087C31.1864 -0.0305111 33.8961 -0.0127474 36.6058 0.0151671C36.8376 0.0151671 37.1508 -0.0736518 37.2323 0.29685Z" fill="white"/>
<path d="M42.9627 64.4367C44.7657 63.6856 46.5917 62.9928 48.3617 62.1681C49.9432 61.4321 51.5044 60.6328 52.9025 59.5644C53.2616 59.2903 53.5876 58.9782 54.0791 58.9985C54.1734 59.3056 53.9009 59.3766 53.7379 59.4984C51.9704 60.8079 49.9891 61.7341 48.0587 62.767C46.9177 63.376 45.6342 63.5536 44.5518 64.2616C44.1265 64.5408 43.5459 64.8656 42.9652 64.4367H42.9627Z" fill="white"/>
<path d="M54.4739 7.18157C52.7549 6.27308 51.2676 4.99155 49.5053 4.14397C48.2828 3.55522 47.1215 2.83706 45.7794 2.51985C45.0612 2.34983 44.45 1.95649 43.8795 1.50224C44.0043 1.37028 44.1903 1.32207 44.3201 1.40581C45.4254 2.13412 46.793 2.19503 47.939 2.88781C48.7744 3.39281 49.6861 3.80645 50.5647 4.25816C51.9043 4.94841 53.086 5.86705 54.3364 6.68418C54.502 6.7933 54.6089 6.96333 54.4765 7.17649L54.4739 7.18157Z" fill="white"/>
<path d="M24.0887 1.49708C23.694 1.86504 23.233 2.24062 22.7313 2.29645C21.4503 2.44109 20.4036 3.1821 19.3034 3.67441C17.8263 4.3342 16.3696 5.17671 15.0784 6.21716C14.7575 6.47601 14.4799 6.80844 13.9986 6.72216C14.7957 5.59543 16.0614 5.07267 17.1667 4.37481C19.0207 3.2024 21.1167 2.49439 23.1006 1.56559C23.4164 1.41841 23.7398 1.23062 24.0887 1.49708Z" fill="white"/>
<path d="M52.5945 36.4155C52.6785 36.6109 52.6633 36.8165 52.5232 36.9611C50.4298 39.0852 48.7719 41.5924 46.5995 43.6428C46.5358 43.7037 46.4263 43.7164 46.3397 43.752C46.2073 42.9627 46.9688 42.6912 47.3253 42.2522C48.9272 40.2753 50.6513 38.3949 52.3398 36.4866C52.3882 36.4308 52.5079 36.4384 52.5945 36.4181V36.4155Z" fill="white"/>
<path d="M31.1331 65.4952C33.1017 65.3277 35.0678 65.3226 37.0364 65.4952C36.5475 66.0104 35.8573 65.8657 35.2792 65.9317C33.9803 66.0763 32.6662 65.9774 31.3725 65.7388C31.2324 65.7134 31.1484 65.6373 31.1331 65.4927V65.4952Z" fill="white"/>
<path d="M8.9686 54.2251C9.59 54.7656 10.3209 55.1463 10.9347 55.7249C11.4517 56.2096 11.7725 56.8211 12.2895 57.2779C12.4602 57.4277 12.6715 57.5342 12.585 57.8159C11.6681 57.7372 11.3218 56.882 10.7691 56.3669C10.1019 55.7426 9.19781 55.2402 8.96605 54.2251H8.9686Z" fill="white"/>
<path d="M43.4539 1.44164C42.8682 1.74108 42.2951 1.44164 41.8011 1.26654C40.571 0.837667 39.3358 0.566135 38.037 0.578824C37.8638 0.578824 37.7263 0.512844 37.6754 0.327593C39.7331 0.028147 41.6406 0.492543 43.4539 1.4391V1.44164Z" fill="white"/>
<path d="M57.8508 14.6172C58.0723 14.1224 58.4187 13.7189 58.816 13.3585C59.4068 12.8205 59.3941 12.181 58.8058 11.6075C58.4263 11.237 58.0545 10.8513 57.8559 10.3438C58.6326 10.5392 59.7455 11.7242 59.7303 12.3409C59.7048 13.2621 58.76 14.4091 57.8533 14.6197L57.8508 14.6172Z" fill="white"/>
<path d="M44.0932 46.1579C43.0822 47.008 42.2163 47.0562 41.2205 46.2061C40.5762 45.6529 39.909 45.0819 39.6212 44.2292C39.7842 44.11 39.9497 44.1607 40.0338 44.3028C40.9582 45.8584 42.2621 46.5766 44.0907 46.1604L44.0932 46.1579Z" fill="white"/>
<path d="M12.5929 7.97607C12.677 8.46331 12.216 8.4963 11.9766 8.712C11.1566 9.45047 10.3009 10.1534 9.68967 11.0949C9.52413 11.3512 9.37133 11.6709 8.95876 11.5618C9.7839 9.9783 10.9274 8.71454 12.5929 7.97607Z" fill="white"/>
<path d="M19.4229 10.3132C19.8915 9.73212 20.5587 9.77019 21.1699 9.85647C22.0027 9.9732 22.8533 10.1229 23.5129 10.7294C22.1479 10.5899 20.7854 10.4503 19.4229 10.3132Z" fill="white"/>
<path d="M38.6866 65.4238C39.9727 65.1548 41.1365 64.3808 42.5143 64.49C41.3632 65.3147 40.1433 65.8502 38.6866 65.4238Z" fill="white"/>
<path d="M25.5813 57.1716C24.5447 57.1386 23.7705 56.5093 22.9352 56.0195C23.9004 56.2124 24.9344 56.2505 25.5813 57.1716Z" fill="white"/>
<path d="M55.9227 16.7539C56.4142 15.9494 56.8522 15.0967 57.7843 14.6831C57.3896 15.5764 56.9057 16.3859 55.9227 16.7539Z" fill="white"/>
<path d="M27.8093 14.9443C28.6116 15.325 29.1158 15.9899 29.5309 16.7385C28.6625 16.4213 28.036 15.8731 27.8093 14.9443Z" fill="white"/>
<path d="M150.689 19.8092C150.096 20.2482 149.587 20.8928 148.7 20.6238C149.199 19.9564 149.879 19.7229 150.689 19.8092Z" fill="white"/>
<path d="M157.155 20.7685C156.254 20.9411 155.678 20.4412 155.164 19.8144C156.022 19.7281 156.58 20.2661 157.155 20.7685Z" fill="white"/>
<path d="M18.6388 51.4286C18.3637 50.7485 17.5895 50.2765 17.7984 49.3984C18.6337 50.4313 18.7432 50.6927 18.6388 51.4286Z" fill="white"/>
<path d="M20.0927 53.7838C19.5655 53.3067 19.1325 52.7636 18.8753 52.0962C19.7387 52.3322 20.0239 52.9793 20.0927 53.7838Z" fill="white"/>
<path d="M116.265 21.8165C117.161 21.4612 117.765 21.8596 118.241 22.5803C117.508 22.5194 116.897 22.1413 116.265 21.8165Z" fill="white"/>
<path d="M21.901 55.3115C21.142 55.2151 20.6811 54.7558 20.4111 54.0757C21.1726 54.1696 21.5139 54.7685 21.901 55.3115Z" fill="white"/>
<path d="M113.438 22.5524C113.876 21.9383 114.388 21.4967 115.216 21.8164C114.686 22.2149 114.146 22.5854 113.438 22.5524Z" fill="white"/>
<path d="M56.1265 34.1952C55.6605 34.345 55.253 34.0354 54.8073 34.0278C55.3217 33.5304 55.6044 33.5659 56.1265 34.1952Z" fill="white"/>
<path d="M35.6864 39.829C35.0727 39.7199 34.9046 39.2555 34.8002 38.7378C35.3961 38.8596 35.582 39.3113 35.6864 39.829Z" fill="white"/>
<path d="M46.0464 44.0489C45.835 44.4677 45.5574 44.8331 45.1627 45.097C45.1652 44.5032 45.2977 44.016 46.0464 44.0489Z" fill="white"/>
<path d="M33.8809 37.7429C33.4429 37.5728 33.0863 37.3343 33.0456 36.8115C33.56 36.913 33.9522 37.1211 33.8809 37.7429Z" fill="white"/>
<path d="M30.7917 17.9795C31.2323 18.1292 31.5201 18.4287 31.678 18.8601C31.0413 18.9083 30.7637 18.5961 30.7917 17.9795Z" fill="white"/>
<path d="M53.7784 18.8777C53.9236 18.4235 54.2241 18.1266 54.6799 17.9819C54.6927 18.5935 54.3947 18.893 53.7784 18.8777Z" fill="white"/>
<path d="M31.7644 18.9463C32.2075 19.0909 32.4826 19.4005 32.643 19.8243C32.0089 19.87 31.7364 19.5579 31.7644 18.9463Z" fill="white"/>
<path d="M52.8104 19.8395C52.9607 19.3928 53.2459 19.0858 53.7043 18.9487C53.7043 19.5451 53.4395 19.8724 52.8104 19.8395Z" fill="white"/>
<path d="M54.749 17.9108C54.8865 17.4515 55.1997 17.1648 55.6479 17.0176C55.6785 17.6444 55.3449 17.9083 54.749 17.9108Z" fill="white"/>
<path d="M29.8267 17.0176C30.2571 17.1749 30.5627 17.4541 30.7079 17.8956C30.0814 17.9337 29.7885 17.6418 29.8267 17.0176Z" fill="white"/>
<path d="M57.7896 10.2752C57.3236 10.1407 57.0358 9.83111 56.8906 9.37686C57.5171 9.35148 57.7871 9.67885 57.7896 10.2752Z" fill="white"/>
<path d="M17.6684 48.3276C17.3449 48.0002 17.4035 47.6424 17.5869 47.2744C17.9943 47.5967 17.946 47.952 17.6684 48.3276Z" fill="white"/>
<path d="M8.00331 53.063C8.59415 53.0808 8.68329 53.4868 8.69857 53.9512C8.27836 53.8015 8.07207 53.4842 8.00331 53.063Z" fill="white"/>
<path d="M146.551 22.0273C146.538 22.5374 146.505 23.0297 145.779 22.946C145.922 22.545 146.1 22.172 146.551 22.0273Z" fill="white"/>
<path d="M55.6379 8.14852C55.2584 8.01909 54.9146 7.84399 54.7542 7.44558C55.2508 7.43035 55.6939 7.47603 55.6379 8.14852Z" fill="white"/>
<path d="M38.1235 42.5746C37.7848 42.468 37.5403 42.2726 37.4894 41.8996C37.9962 41.8488 38.2483 42.0366 38.1235 42.5746Z" fill="white"/>
<path d="M44.674 28.186C44.73 27.7672 44.9669 27.5338 45.3922 27.4932C45.4151 27.9931 45.191 28.2418 44.674 28.186Z" fill="white"/>
<path d="M32.6 36.1394C32.1135 36.1673 31.8894 35.9211 31.8843 35.4517C32.3173 35.4796 32.5388 35.7257 32.6 36.1394Z" fill="white"/>
<path d="M47.7811 25.0924C47.8371 24.6737 48.0739 24.4377 48.4967 24.3945C48.5247 24.897 48.3006 25.1431 47.7811 25.0924Z" fill="white"/>
<path d="M51.843 20.8115C51.9271 20.4309 52.1614 20.2 52.5408 20.1162C52.6121 20.6517 52.3804 20.8826 51.843 20.8115Z" fill="white"/>
<path d="M56.626 9.10769C56.2389 9.02902 56.0071 8.79048 55.918 8.41236C56.4477 8.34892 56.6769 8.58746 56.626 9.10769Z" fill="white"/>
<path d="M13.2244 58.3031C13.7261 58.2549 13.9375 58.5112 13.9451 58.9807C13.4842 58.9883 13.2652 58.7371 13.2244 58.3031Z" fill="white"/>
<path d="M119.466 20.2101C119.048 20.3015 118.679 20.2685 118.473 19.8218C118.885 19.7432 119.267 19.7432 119.466 20.2101Z" fill="white"/>
<path d="M120.212 24.6357C120.691 24.656 120.852 24.8667 120.62 25.3108C120.273 25.2118 120.179 24.9606 120.212 24.6357Z" fill="white"/>
<path d="M26.8109 57.3721C26.5206 57.4965 26.2328 57.6031 26.024 57.2402C26.3271 57.0422 26.6072 56.9686 26.8109 57.3721Z" fill="white"/>
<path d="M17.7397 11.9905C17.6785 11.6149 17.7626 11.3231 18.1904 11.2368C18.2516 11.6124 18.1268 11.8788 17.7397 11.9905Z" fill="white"/>
<path d="M145.168 24.1333C145.308 24.585 145.109 24.7601 144.671 24.7449C144.607 24.3566 144.829 24.1967 145.168 24.1333Z" fill="white"/>
<path d="M38.7911 43.3231C38.4448 43.3536 38.2818 43.181 38.2589 42.8511C38.6409 42.7775 38.8344 42.9196 38.7911 43.3231Z" fill="white"/>
<path d="M48.7511 24.1259C48.7587 23.7807 48.937 23.6158 49.2808 23.6259C49.3445 24.0446 49.1789 24.2223 48.7511 24.1259Z" fill="white"/>
<path d="M13.7389 6.98115C13.7898 7.39479 13.6293 7.57751 13.2015 7.46839C13.2372 7.14864 13.395 6.96339 13.7389 6.98115Z" fill="white"/>
<path d="M144.513 25.2627C144.691 25.5418 144.796 25.8058 144.35 25.9377C144.192 25.6611 144.225 25.4327 144.513 25.2627Z" fill="white"/>
<path d="M120.684 25.9453C121.079 26.062 121.099 26.2397 120.773 26.4757C120.48 26.3412 120.536 26.1509 120.684 25.9453Z" fill="white"/>
<path d="M30.6544 34.0151C30.4684 34.0988 30.2851 34.1013 30.1094 33.9897C30.0915 33.774 30.2341 33.7105 30.4022 33.7156C30.578 33.7207 30.7002 33.807 30.6544 34.0151Z" fill="white"/>
<path d="M17.5359 12.95C17.4467 12.7445 17.3958 12.5491 17.6607 12.4272C17.9866 12.6886 17.9357 12.8612 17.5359 12.95Z" fill="white"/>
<path d="M44.0905 28.9624C44.0523 28.6985 44.0625 28.4676 44.4165 28.46C44.5056 28.7569 44.4165 28.937 44.0905 28.9624Z" fill="white"/>
<path d="M31.1661 34.6444C30.9369 34.6191 30.8554 34.4973 30.9293 34.279C31.2272 34.2612 31.3036 34.3856 31.1661 34.6444Z" fill="white"/>
<path d="M54.5374 34.2893C54.5959 34.4999 54.5297 34.6293 54.298 34.6445C54.1503 34.3755 54.2368 34.2613 54.5374 34.2893Z" fill="white"/>
<path d="M53.7479 35.2331C53.8243 35.4666 53.7352 35.5884 53.4983 35.6138C53.371 35.3499 53.4474 35.2179 53.7479 35.2331Z" fill="white"/>
<path d="M145.532 23.3467C145.68 23.6182 145.629 23.7832 145.293 23.7958C145.186 23.5472 145.298 23.4152 145.532 23.3467Z" fill="white"/>
<path d="M122.999 24.5701C122.706 24.4914 122.719 24.3341 122.889 24.1387C123.103 24.2376 123.179 24.3721 122.999 24.5701Z" fill="white"/>
<path d="M36.3921 40.6358C36.1654 40.6256 36.0967 40.5063 36.1553 40.2982C36.4609 40.2526 36.5347 40.3693 36.3921 40.6358Z" fill="white"/>
<path d="M53.2231 35.8955C53.2053 36.129 53.0856 36.2178 52.8564 36.1518C52.8309 35.8549 52.9582 35.7788 53.2231 35.8955Z" fill="white"/>
<path d="M54.7766 58.344C54.7842 58.0826 54.9243 58.0318 55.1484 58.108C55.1484 58.382 55.0363 58.4785 54.7766 58.344Z" fill="white"/>
<path d="M47.0119 25.8795C46.9915 25.6435 47.101 25.5369 47.3379 25.5623C47.4194 25.8592 47.3251 25.981 47.0119 25.8795Z" fill="white"/>
<path d="M29.6811 34.0382C29.6455 34.2463 29.5181 34.2716 29.3449 34.2031C29.294 34.0559 29.35 33.9519 29.4876 33.9062C29.5869 33.8732 29.6709 33.9164 29.6811 34.0382Z" fill="white"/>
<path d="M120.439 20.7784C120.195 20.923 120.042 20.89 120.037 20.5728C120.263 20.4637 120.388 20.55 120.439 20.7784Z" fill="white"/>
<path d="M148.349 20.7431C148.339 21.0832 148.173 21.1288 147.903 20.9816C147.969 20.7482 148.102 20.6391 148.349 20.7431Z" fill="white"/>
<path d="M147.353 21.4712C147.391 21.8316 147.236 21.9027 146.93 21.7555C146.989 21.5372 147.113 21.4205 147.353 21.4712Z" fill="white"/>
<path d="M159.969 28.7091C160.224 31.1934 158.798 32.7693 157.158 34.3833C156.394 35.1345 155.457 34.9188 154.792 35.4161C154.092 35.9389 153.307 36.1825 152.637 35.911C151.448 35.4263 150.075 35.4923 149.016 34.5026C148.542 34.0585 148.13 33.4647 147.498 33.1678C147.442 33.1424 147.384 33.0967 147.353 33.0434C146.128 30.8813 145.453 28.501 146.367 26.1841C147.007 24.565 148.109 23.083 149.981 22.2456C151.298 21.6568 152.561 21.3269 153.885 21.5325C156.004 21.8599 157.782 22.8698 158.834 24.8594C158.879 24.9431 158.872 25.0802 158.936 25.1258C160.28 26.0369 159.921 27.4326 159.969 28.7091ZM153.132 34.8502C154.346 34.9695 155.561 34.665 156.593 33.7717C157.392 33.0789 158.309 32.4877 158.518 31.3229C158.607 30.8204 158.699 30.285 158.946 29.8485C159.511 28.8486 159.19 27.9325 158.846 26.991C158.727 26.6586 158.543 26.3236 158.533 25.9861C158.51 25.136 157.97 24.6259 157.39 24.1717C156.414 23.4104 155.345 22.8419 154.056 22.7506C151.881 22.5983 149.943 22.9282 148.298 24.5929C147.465 25.438 147.6 26.4734 147.205 27.3869C146.457 29.1202 147.215 30.7874 147.985 32.1451C148.991 33.9189 150.755 35.0101 153.129 34.8477L153.132 34.8502Z" fill="white"/>
<path d="M269.158 28.3C269.158 25.7852 269.16 23.2703 269.155 20.7555C269.155 20.2302 269.176 19.7734 269.896 19.7886C270.587 19.8013 271.223 19.88 271.356 20.7149C271.488 21.5549 272.097 21.867 272.756 21.3113C274.773 19.6085 277.116 19.5729 279.528 19.9257C281.026 20.1439 282.261 20.9357 283.147 22.1233C283.646 22.7933 284.013 22.7247 284.566 22.3238C285.495 21.6513 286.313 20.8469 287.42 20.3875C288.149 20.0856 288.839 19.8039 289.626 19.7937C290.403 19.7836 291.179 19.8166 291.956 19.7836C294.46 19.6744 297.411 22.1791 297.666 24.831C298.03 28.6299 297.75 32.4288 297.831 36.2252C297.849 37.0093 297.299 37.3215 296.533 37.3164C295.7 37.3113 295.603 36.7378 295.598 36.1339C295.583 33.1673 295.555 30.2008 295.603 27.2342C295.626 25.7649 295.073 24.5011 294.251 23.4023C293.382 22.24 290.484 21.0702 288.691 22.0573C288.353 22.2451 288.014 22.4177 287.611 22.4634C286.598 22.5776 285.454 23.8033 285.037 24.7219C283.407 28.2924 284.385 32.0507 284.115 35.7151C284.082 36.1516 284.224 36.6744 283.572 36.7784C282.849 36.8952 282.508 36.6388 282.513 35.8395C282.538 32.5836 282.528 29.3278 282.513 26.0694C282.503 23.7753 280.241 21.5244 277.944 21.5016C277.557 21.4965 277.167 21.4965 276.78 21.499C274.269 21.5092 272.499 23.2653 271.598 25.5872C270.319 28.8862 271.239 32.2106 270.902 35.4994C270.874 35.7862 270.935 36.0932 270.859 36.3648C270.709 36.8901 270.276 37.0043 269.779 36.9586C269.196 36.9028 269.16 36.4612 269.158 36.0374C269.148 33.4591 269.153 30.8783 269.153 28.3H269.158Z" fill="white"/>
<path d="M242.736 34.8908C243.454 34.6776 244.134 35.0202 244.829 35.0811C246.874 35.2613 248.649 34.8248 250.019 33.2312C250.742 32.3912 250.855 31.3584 250.633 30.3281C250.541 29.8967 250.124 29.5997 249.594 29.6175C247.536 29.6784 245.476 29.4678 243.431 29.955C241.526 30.4093 240.795 32.4013 242.068 33.8681C242.213 34.0331 242.422 34.1726 242.292 34.4442C240.866 33.9493 241.164 32.7414 241.182 31.6883C241.2 30.7417 241.694 30.1124 242.608 29.7165C245.028 28.6735 247.562 29.0211 250.06 29.0364C251.112 29.0415 251.746 30.4752 251.361 31.5969C250.348 34.5609 247.995 35.8094 245.04 35.8069C244.18 35.8069 243.4 35.4542 242.736 34.8908Z" fill="white"/>
<path d="M135.521 28.8356C133.71 28.8356 131.899 28.8305 130.089 28.8356C128.497 28.8406 128.186 29.4421 128.489 30.9774C128.848 32.7994 130.218 33.7612 131.354 34.9488C131.718 35.3295 132.271 35.2787 132.719 35.3422C134.601 35.6086 136.491 35.4995 138.363 35.1798C139.012 35.0681 139.231 34.2205 139.947 34.1469C140.362 34.1063 140.938 33.5303 141.106 34.3322C141.208 34.8245 141.256 35.5249 140.428 35.6645C140.304 35.6848 140.151 35.7228 140.074 35.8091C138.699 37.3038 136.822 36.7354 135.159 36.9409C134.092 37.0729 132.979 36.8369 131.887 36.7658C131.823 36.7607 131.736 36.776 131.698 36.7404C130.565 35.7634 129.1 35.2914 128.077 34.0683C127.259 33.0887 127.086 31.9011 126.477 30.8708C125.848 29.805 126.174 28.4143 126.299 27.1708C126.449 25.6888 127.101 24.42 128.013 23.2121C130.394 20.0628 133.43 19.3726 136.977 20.1948C138.462 20.5399 139.718 21.6133 140.8 22.7832C142 24.08 142.267 25.765 142.787 27.3358C143.085 28.2392 142.481 28.8254 141.343 28.8406C139.402 28.866 137.461 28.8483 135.523 28.8483V28.8381L135.521 28.8356ZM134.436 28.0286V28.021C136.05 28.021 137.663 28.0337 139.277 28.0159C140.433 28.0057 140.843 27.5388 140.744 26.3994C140.66 25.4249 140.357 24.5748 139.629 23.849C138.73 22.9532 137.833 21.9052 136.651 21.593C133.97 20.8876 131.522 21.3697 129.577 23.6308C129.016 24.2804 128.899 25.0493 128.471 25.6888C128.125 26.2065 127.794 26.6709 128.133 27.2521C128.484 27.856 129.085 28.0514 129.788 28.0387C131.336 28.0134 132.885 28.0311 134.436 28.0311V28.0286Z" fill="white"/>
<path d="M315.371 30.696C315.371 32.4039 315.358 34.1143 315.378 35.8222C315.384 36.3272 315.274 36.7002 314.752 36.8804C314.212 37.0656 313.805 36.8626 313.461 36.4769C312.666 35.5912 312.218 35.543 311.301 36.2942C310.794 36.7104 310.173 36.6824 309.587 36.8322C307.782 37.294 306.004 36.9464 304.242 36.6951C303.012 36.52 302.204 35.6217 301.776 34.4391C301.315 33.1703 301.201 31.937 301.71 30.6072C302.204 29.3181 303.641 28.0645 305.026 28.0518C307.259 28.0315 309.49 28.034 311.724 28.0188C313.137 28.0086 313.718 27.0596 313.44 25.7044C313.13 24.197 312.391 23.1211 311.181 22.1974C310.496 21.6746 309.76 21.6441 309.032 21.5274C306.974 21.195 305.1 21.8624 303.315 22.7937C302.836 23.0449 302.38 23.2353 302.046 22.7353C301.738 22.2709 302.148 22.0451 302.474 21.6873C302.92 21.1975 303.401 21.0326 303.959 20.9767C304.619 20.9108 305.189 20.7077 305.709 20.2941C306.073 20.0073 306.518 19.9236 306.99 19.9363C307.7 19.954 308.413 19.9439 309.126 19.9363C311.197 19.9084 312.972 20.6722 314.238 22.2532C314.984 23.1871 315.333 24.428 315.363 25.6664C315.407 27.3412 315.373 29.0186 315.373 30.696H315.371ZM309.676 28.6735C307.978 28.6126 306.317 28.5974 304.736 29.4805C303.702 30.0591 302.869 31.5665 303.113 32.7566C303.406 34.1828 304.186 34.9695 305.563 35.5329C307.361 36.2688 310.038 36.081 311.439 34.7386C312.266 33.9468 312.985 33.1348 313.412 31.975C314.154 29.9753 313.448 28.6786 311.319 28.671C310.771 28.671 310.221 28.671 309.674 28.671L309.676 28.6735Z" fill="white"/>
<path d="M258.049 28.4523C258.049 25.973 258.065 23.4937 258.037 21.0144C258.029 20.3876 258.161 20.0755 258.872 20.0704C259.567 20.0653 259.687 20.4003 259.651 20.9687C259.631 21.2885 259.598 21.6311 259.684 21.9305C259.83 22.433 260.115 22.9075 260.7 22.3822C261.77 21.423 263.138 20.9789 264.33 20.2303C264.898 19.8724 265.659 20.0298 266.324 20.1262C266.764 20.1922 266.627 20.6312 266.624 20.9307C266.622 21.3164 266.377 21.5702 266.005 21.5067C264.612 21.2707 263.535 22.1741 262.427 22.669C261.375 23.1384 260.818 24.3768 260.423 25.5721C259.323 28.9041 260.074 32.3223 259.868 35.6949C259.832 36.276 259.771 36.7125 259.088 36.7861C258.406 36.8622 258.014 36.7404 258.032 35.8878C258.085 33.411 258.049 30.9291 258.049 28.4498V28.4523Z" fill="white"/>
<path d="M168.939 16.698C168.939 17.4695 168.287 18.1445 167.543 18.1369C167.103 18.1318 166.265 17.2537 166.25 16.7792C166.227 16.056 166.848 15.5129 167.739 15.5078C168.531 15.5053 168.913 15.9291 168.939 16.6955V16.698Z" fill="white"/>
<path d="M134.436 28.029C132.887 28.029 131.336 28.0112 129.788 28.0366C129.083 28.0493 128.484 27.8539 128.133 27.2499C127.794 26.6688 128.128 26.2044 128.471 25.6867C128.899 25.0472 129.016 24.2783 129.577 23.6287C131.522 21.3701 133.967 20.8854 136.651 21.5909C137.836 21.903 138.73 22.9511 139.629 23.8469C140.357 24.5727 140.66 25.4228 140.744 26.3973C140.841 27.5367 140.433 28.0036 139.277 28.0138C137.665 28.029 136.05 28.0188 134.436 28.0188V28.0265V28.029ZM134.538 27.2245V27.2296C136.058 27.2296 137.578 27.2398 139.099 27.2271C140.018 27.2195 140.357 26.7754 140.168 25.8745C139.845 24.3138 137.174 22.1111 135.437 21.9411C132.737 21.6772 130.776 22.8775 129.327 25.0244C128.988 25.5243 128.808 26.1714 129.093 26.7779C129.393 27.4225 130.035 27.2119 130.562 27.2195C131.889 27.2372 133.213 27.2245 134.54 27.2245H134.538Z" fill="white"/>
<path d="M309.676 28.6733C310.224 28.6733 310.774 28.6733 311.322 28.6733C313.448 28.6809 314.154 29.9777 313.415 31.9774C312.985 33.1371 312.269 33.9492 311.441 34.7409C310.038 36.0833 307.364 36.2686 305.566 35.5352C304.188 34.9718 303.409 34.1826 303.116 32.759C302.872 31.5713 303.704 30.0614 304.738 29.4828C306.32 28.5997 307.98 28.6149 309.679 28.6759L309.676 28.6733ZM309.111 29.7671C308.049 29.8153 306.816 29.6529 305.604 29.9625C304.685 30.1985 304.109 30.7872 303.847 31.6678C303.391 33.198 304.377 34.7434 305.963 34.8881C307.922 35.0683 309.895 35.4692 311.487 33.7994C312.233 33.0178 312.842 32.2007 312.842 31.0511C312.842 30.102 312.562 29.7772 311.604 29.7696C310.828 29.762 310.051 29.7696 309.114 29.7696L309.111 29.7671Z" fill="white"/>
</g>
<defs>
<clipPath id="clip0_87_1134">
<rect width="315" height="66" fill="white" transform="translate(0.956543)"/>
</clipPath>
</defs>
</svg>
