<svg width="333" height="61" viewBox="0 0 333 61" fill="none" xmlns="http://www.w3.org/2000/svg">
<g clip-path="url(#clip0_2002_2357)">
<path d="M141.487 27.9813C141.487 18.6573 141.487 9.32396 141.487 0H172.517C214.592 2.42743 211.958 60.2529 171.171 60.714H141.487C141.487 54.4666 141.487 48.2193 141.487 41.9719C146.22 41.9814 150.971 41.9719 155.704 41.9719V49.1978C159.787 49.0472 163.927 49.3954 168.01 49.1978C174.577 48.9061 180.222 47.4854 184.597 42.3107C189.913 36.0163 189.791 24.3213 184.485 18.0458C177.202 9.43687 165.724 11.8267 155.713 11.5068V27.9813C150.98 27.9813 146.229 27.9719 141.496 27.9813H141.487Z" fill="#FECC14"/>
<path d="M141.487 27.9812C141.487 32.6385 141.487 37.3146 141.487 41.9718C136.83 41.9624 132.154 41.9718 127.497 41.9718V27.9812C132.154 27.9812 136.83 27.9906 141.487 27.9812Z" fill="#FECC14"/>
<path d="M10.8293 13.7649L20.8778 45.1333L31.6224 13.8025L41.3039 13.8684L51.5593 45.5849L62.0594 13.7649H71.9855L57.5244 58.8793L46.3658 58.917L36.2233 28.6588L26.156 58.8793H14.6869L0 13.7649H10.8293Z" fill="white"/>
<path d="M243.712 44.4557H217.537C219.532 52.6412 230.756 53.2434 236.157 48.1062L241.445 54.0149C238.735 57.0633 234.727 58.7945 230.719 59.3213C218.478 60.9396 206.586 53.8926 207.376 40.4947C208.091 28.4704 219.287 21.8091 230.587 24.293C240.033 26.3723 245.095 35.1223 243.712 44.4463V44.4557ZM234.463 38.5941C232.826 28.9126 219.024 28.9691 217.311 38.5941H234.463Z" fill="white"/>
<path d="M111.925 44.4558H85.7504C87.6792 52.6601 98.9601 53.2058 104.37 48.1252L109.667 53.8268C106.995 57.0634 103.043 58.7757 98.9225 59.3309C86.4937 60.9962 74.7235 53.808 75.5797 40.2784C76.4359 26.7487 89.8055 20.7743 101.369 25.1116C109.347 28.1036 113.045 36.2421 111.916 44.4652L111.925 44.4558ZM102.677 38.5942C101.086 28.9127 87.1052 28.9786 85.5246 38.5942H102.677Z" fill="white"/>
<path d="M274.393 33.8428C273.34 33.9463 272.493 33.1278 271.533 32.7796C268.25 31.5847 262.021 30.4745 258.992 32.535C257.166 33.777 257.411 35.9127 259.396 36.7971C265.041 39.2998 276.256 37.5404 278.364 45.5848C280.359 53.187 274.459 57.8443 267.685 59.058C260.911 60.2717 253.582 59.1991 247.353 55.9531L250.505 48.5203C252.405 49.4517 254.259 50.3832 256.319 50.9383C259.236 51.7192 264.467 52.4061 267.252 51.1735C269.492 50.1762 269.727 47.7582 267.356 46.6762C261.899 44.1923 250.674 46.1117 248.539 38.1896C245.321 26.2783 258.531 23.0793 267.535 23.9261C268.908 24.0578 277.423 25.6573 277.527 26.9651C277.574 27.5955 274.422 32.6009 274.412 33.8428H274.393Z" fill="white"/>
<path d="M309.177 36.7688C305.611 29.6653 294.782 30.8696 292.834 38.6223C291.583 43.5901 293.606 49.6586 298.997 50.9006C303.297 51.8979 307.079 50.2702 309.3 46.5068L317.033 50.5807C317.325 51.0794 315.359 53.6573 314.916 54.1654C308.838 61.1372 296.184 60.902 289.09 55.6049C279.813 48.6896 279.935 34.2191 289.316 27.4354C297.351 21.6303 312.847 22.3077 317.033 32.582L309.168 36.7688H309.177Z" fill="white"/>
<path d="M127.271 13.9905H113.28V27.9811H127.271V13.9905Z" fill="#FECC14"/>
<path d="M325.802 46.9962C333.612 45.9707 335.54 56.5648 329.237 59.0016C320.232 62.4922 316.667 48.1911 325.802 46.9962Z" fill="white"/>
<path d="M123.206 0.903076H115.538V8.79693H123.206V0.903076Z" fill="#FECC14"/>
<path d="M135.165 6.32251H127.497V13.9906H135.165V6.32251Z" fill="#FECC14"/>
</g>
<defs>
<clipPath id="clip0_2002_2357">
<rect width="333" height="60.714" fill="white"/>
</clipPath>
</defs>
</svg>
