<svg width="167" height="58" viewBox="0 0 167 58" fill="none" xmlns="http://www.w3.org/2000/svg">
<path d="M27.8128 57.0509C26.5985 58.101 25.5132 58.3297 23.9293 57.3735C16.9895 53.2085 9.96173 49.1842 2.91633 45.2069C1.43803 44.3797 0.939392 43.4059 0.956991 41.7399C1.03325 33.5447 0.998055 25.3437 0.962857 17.1426C0.962857 15.7934 0.968723 14.5732 2.61715 14.2095C3.09818 14.4207 3.52642 14.7374 4.00159 14.9604C10.7654 18.7148 17.4354 22.6276 24.1816 26.4055C25.1143 26.9276 25.9884 27.5259 26.663 28.3824C27.0619 28.9221 27.3024 29.5263 27.4198 30.1833C27.848 38.6249 27.3435 47.0782 27.7072 55.5198C27.8069 56.0243 27.9829 56.5229 27.8128 57.045V57.0509Z" fill="#EAEAEA"/>
<path d="M26.7333 29.6786C26.5222 29.2797 26.3168 28.875 26.1057 28.4761C29.5668 25.7717 33.55 23.9473 37.3278 21.7709C41.0119 19.6532 44.7076 17.5706 48.5911 15.3297C46.3091 13.3352 43.857 12.3438 41.6337 11.0004C37.2164 8.33125 32.6935 5.84395 28.2996 3.1396C26.4459 2.00154 25.0204 2.06606 23.2312 3.21585C16.6844 7.42197 10.0907 11.5753 3.33277 15.447C2.68161 15.2769 2.65814 14.7372 2.60535 14.2151C9.94993 9.6101 17.3004 5.02267 24.6215 0.388312C25.6364 -0.256979 26.3755 0.0422 27.2672 0.570165C34.7525 4.96401 42.2438 9.35785 49.7761 13.6754C51.0667 14.4146 51.4186 15.3121 51.4069 16.7318C51.3365 25.0325 51.3541 33.3275 51.3658 41.6282C51.3658 42.7311 51.3365 43.658 50.1574 44.3209C42.6838 48.527 35.2453 52.8035 27.801 57.0507C27.6016 56.8806 27.408 56.7104 27.2085 56.5345C27.3317 54.9506 28.7807 54.6514 29.7897 54.0295C35.2688 50.6388 40.9532 47.5825 46.5203 44.3385C48.509 43.1828 49.4241 41.7221 49.383 39.3756C49.2775 33.2219 49.3655 27.0681 49.342 20.9144C49.3303 18.0869 49.0956 17.9285 46.579 19.3833C41.4225 22.3634 36.1722 25.1851 31.0157 28.1651C29.7017 28.9277 28.4463 30.0189 26.7157 29.6728L26.7333 29.6786Z" fill="#EAEAEA"/>
<path d="M143.402 28.3941C138.076 28.3413 134.081 32.0135 133.993 37.0351C133.905 42.1563 137.765 45.9753 143.044 45.9753C148.295 45.9753 152.237 42.2033 152.272 37.1348C152.307 32.0722 148.623 28.441 143.396 28.3882L143.402 28.3941ZM147.503 37.4516C147.374 39.8568 145.532 41.5462 143.08 41.5052C140.569 41.47 138.662 39.4872 138.756 37.0057C138.85 34.5536 140.956 32.6119 143.379 32.741C145.848 32.87 147.638 34.9174 147.503 37.4457V37.4516Z" fill="#EAEAEA"/>
<path d="M83.7657 28.4701C79.2369 29.1388 76.0633 33.1455 76.3331 37.8561C76.603 42.596 80.3574 45.975 85.3555 45.9926C87.35 45.9809 89.2976 45.6055 90.8756 44.3853C91.5913 43.8338 93.5682 43.5112 92.2483 41.8921C91.4329 40.8948 90.7114 39.4635 88.7638 40.8714C86.6108 42.4318 84.147 42.3438 82.1173 40.2671C81.6597 39.7978 81.0965 39.2053 81.4133 38.4779C81.7008 37.815 82.4399 38.0966 82.9855 38.0908C85.7192 38.0614 88.4646 37.9265 91.1865 38.1142C93.7736 38.2961 94.2018 37.1932 93.7266 34.9758C92.7646 30.4998 88.623 27.7426 83.7657 28.4583V28.4701ZM88.8518 34.5299C88.6523 35.3101 87.9425 35.0813 87.4204 35.0872C85.5021 35.1165 83.5897 35.0989 81.3371 35.0989C82.9972 31.72 86.0829 30.9398 88.1361 33.0575C88.5291 33.4623 89.0219 33.8846 88.8518 34.5299Z" fill="#EAEAEA"/>
<path d="M131.065 36.5128C131.153 33.433 130.749 30.5585 127.61 29.0509C124.654 27.6254 121.932 28.3294 119.345 30.6113C118.658 27.3673 118.594 27.4084 116.277 27.4729C113.596 27.5433 114.716 29.5085 114.681 30.6759C114.552 34.6767 114.681 38.6892 114.611 42.69C114.581 44.491 114.499 45.7698 117.092 45.717C119.497 45.6701 119.485 44.5437 119.415 42.8367C119.333 40.7893 119.35 38.7303 119.421 36.6829C119.497 34.4596 120.524 32.8171 122.905 32.7936C125.381 32.7701 126.22 34.5242 126.267 36.724C126.314 39.0705 126.337 41.417 126.261 43.7577C126.214 45.0834 126.566 45.5586 128.015 45.6759C130.414 45.8695 131.376 45.189 131.089 42.6607C130.86 40.6368 130.995 38.5601 131.054 36.5128H131.065Z" fill="#EAEAEA"/>
<path d="M72.051 32.5177C73.5117 32.7582 74.6321 32.6409 74.5969 30.5114C74.5559 28.247 73.1714 28.6342 71.8574 28.6342C70.4964 28.6342 69.1178 28.9216 69.2528 26.6866C69.3583 24.8915 67.7451 25.5837 66.8476 25.572C65.95 25.5603 64.4072 24.9032 64.4893 26.7394C64.5597 28.3526 63.8675 28.7457 62.4303 28.6753C61.3157 28.6166 61.2453 29.5141 61.3391 30.3119C61.433 31.0804 60.8522 32.4883 62.1311 32.4238C65.1288 32.2654 64.3955 34.2834 64.4365 35.8908C64.4776 37.4453 64.3896 39.0058 64.4659 40.5603C64.6595 44.262 66.5191 45.9749 70.2559 45.9749C70.5492 45.9749 70.8718 46.057 71.1241 45.9632C72.3032 45.5173 74.2332 46.3914 74.3212 43.9921C74.4033 41.7629 73.4823 41.1118 71.3588 41.4637C70.0858 41.6749 69.3701 40.8419 69.3349 39.5513C69.2997 38.1904 69.417 36.8176 69.2821 35.4684C69.065 33.3448 69.5695 32.1188 72.051 32.5294V32.5177Z" fill="#EAEAEA"/>
<path d="M110.064 40.8771C108.885 39.7684 108.281 40.6249 107.336 41.0414C105.266 41.9506 103.265 41.7395 101.828 39.8094C100.602 38.1552 100.573 36.2955 101.758 34.6237C103.124 32.6995 105.225 32.0249 107.16 33.2861C109.783 34.9874 110.745 32.6878 111.384 31.4559C112.112 30.0421 110.082 29.7136 109.096 29.1504C107.988 28.5169 106.709 28.3115 105.559 28.3937C101.394 28.3702 97.9797 30.5994 96.6715 34.0898C95.3751 37.5568 96.4193 41.5987 99.2233 43.9334C102.057 46.2917 106.392 46.6671 109.677 44.831C112.153 43.4465 112.123 42.8071 110.07 40.8771H110.064Z" fill="#EAEAEA"/>
<path d="M165.77 28.5933C164.867 27.9187 163.494 28.6285 162.485 29.2327C161.67 29.7196 160.972 30.406 159.763 31.3681C160.215 28.6696 158.825 28.5581 157.035 28.605C154.83 28.6637 155.51 30.2183 155.493 31.3153C155.428 35.2105 155.563 39.1057 155.428 43.0009C155.358 44.9309 155.757 45.7228 157.927 45.7052C159.992 45.6876 160.385 44.8957 160.274 43.1182C160.162 41.2762 160.215 39.4166 160.315 37.5687C160.432 35.2339 161.717 33.8495 163.993 33.2805C164.779 33.0869 166.199 33.8084 166.157 32.1424C166.128 30.9281 166.809 29.3618 165.77 28.5874V28.5933Z" fill="#EAEAEA"/>
<path d="M78.932 22.903C77.659 21.6183 77.4361 20.4861 78.5096 18.8787C79.3895 17.5647 78.3277 16.1216 76.7614 15.928C75.4181 15.7579 73.3825 14.6198 72.8017 16.761C72.3324 18.4798 72.6903 20.4274 72.7489 22.2694C72.7606 22.5745 73.0598 22.991 73.3414 23.1318C73.6758 23.3019 74.1803 23.167 74.2448 22.7094C74.7376 19.1251 75.7173 21.19 76.6324 22.4923C77.0724 23.1259 77.6355 23.3723 78.9437 22.903H78.932ZM75.5765 19.3656C74.761 19.4478 74.3211 19.0606 74.3269 18.1748C74.3269 17.3535 74.849 17.2244 75.4709 17.2244C76.1807 17.2244 76.8494 17.3242 76.9961 18.2334C76.9433 19.1192 76.2628 19.3011 75.5765 19.3656Z" fill="#EAEAEA"/>
<path d="M65.3102 23.2725C67.4162 23.1963 68.9355 21.9409 68.7067 20.0519C68.4838 18.2217 66.6066 19.436 65.4862 19.1896C64.9817 20.8028 67.5042 19.7997 66.5597 21.1548C65.8323 22.199 64.6414 21.9585 63.7321 21.1431C62.8991 20.3981 62.8229 19.3949 63.2804 18.4563C63.826 17.3359 64.8585 17.0073 66.0083 17.3945C66.7005 17.6292 67.422 17.9518 67.6801 17.0543C67.95 16.1157 66.9821 16.0159 66.3954 15.8282C64.7294 15.2944 63.2863 15.8106 62.1893 17.1129C61.151 18.339 60.975 19.7528 61.7317 21.2076C62.4768 22.6507 63.6793 23.3312 65.3102 23.2725Z" fill="#EAEAEA"/>
<path d="M106.193 23.255C108.463 23.3313 110.147 21.7004 110.164 19.4947C110.182 17.3066 108.434 15.5937 106.246 15.6406C104.104 15.6934 102.257 17.5237 102.409 19.6238C102.567 21.9116 103.876 23.1788 106.193 23.255ZM106.287 17.2186C107.724 17.2831 108.486 18.122 108.545 19.4185C108.604 20.756 107.788 21.6946 106.451 21.7474C104.99 21.806 104.057 20.973 104.093 19.4185C104.128 18.034 104.943 17.3301 106.281 17.2127L106.287 17.2186Z" fill="#EAEAEA"/>
<path d="M87.4146 22.8444C89.1041 21.9821 88.9692 20.2985 88.9222 19.0548C88.9222 18.3333 88.9809 17.9285 88.9105 17.5531C88.7814 16.896 89.3387 15.7462 88.0305 15.8401C87.1213 15.8988 87.2621 16.8081 87.2445 17.4768C87.2327 18.0634 87.2503 18.6501 87.2386 19.2367C87.2151 20.3102 87.3149 21.6419 85.819 21.6536C84.1647 21.6712 84.2351 20.2867 84.2292 19.0842C84.2292 18.2042 84.2585 17.3184 84.1471 16.4561C84.0415 15.6289 83.1087 15.5351 82.921 16.0102C82.1349 17.9461 82.0528 20.0638 83.0618 21.9C84.018 23.6423 85.7838 23.6833 87.4205 22.8503L87.4146 22.8444Z" fill="#EAEAEA"/>
<path d="M96.6365 20.8439C97.9975 20.5213 98.9243 19.8232 98.9419 18.3038C98.9595 16.7551 98.0033 16.0864 96.6423 15.7872C93.4804 15.095 92.9349 15.623 92.9407 19.4126C92.9407 20.0872 92.8997 20.7677 92.9525 21.4423C93.0053 22.0524 92.6533 22.9089 93.6036 23.1142C94.6067 23.3254 94.6478 22.5745 94.6771 21.8647C94.7358 20.3981 95.9032 21.0258 96.6365 20.8498V20.8439ZM94.6537 18.4036C94.6713 17.7993 94.6654 17.201 95.5219 17.2127C96.3256 17.2186 97.182 17.2303 97.2348 18.3038C97.2759 19.1486 96.6247 19.436 95.9032 19.5475C95.0115 19.6707 94.6302 19.2718 94.6537 18.4094V18.4036Z" fill="#EAEAEA"/>
</svg>
