<svg width="86" height="76" viewBox="0 0 86 76" fill="none" xmlns="http://www.w3.org/2000/svg">
<path d="M38.0767 75.7144C34.2847 75.7144 30.8081 75.9123 27.3687 75.6155C26.0758 75.5042 25.983 73.8165 25.9892 72.5121C26.0201 65.9218 25.9026 59.3316 26.0449 52.7476C26.0944 50.522 25.3644 49.9533 23.2426 49.9903C16.6545 50.1016 10.0601 49.9409 3.46583 50.0584C0.892437 50.1078 -0.0354699 49.0877 0.0016463 46.6087C0.0820648 40.8469 0.112995 35.0789 0.0016463 29.3171C-0.047842 26.7391 1.01616 25.8675 3.49676 25.9045C10.0911 25.9973 16.6854 25.8551 23.2735 25.9849C25.4634 26.0282 26.082 25.3296 26.0387 23.1782C25.9088 16.6931 26.0634 10.208 25.9583 3.72286C25.915 1.10161 26.88 -0.0420938 29.5586 0.00118155C35.225 0.100097 40.8914 0.100097 46.5516 0.0259103C49.2425 -0.0111828 50.1519 1.21289 50.121 3.78468C50.0282 10.2698 50.1457 16.7549 50.0529 23.24C50.0282 25.107 50.3251 26.158 52.5273 25.9602C55.4842 25.7005 59.2701 27.1286 61.2125 25.41C63.2292 23.6233 61.7507 19.7842 61.8373 16.8476C61.9734 12.4274 61.9425 7.99475 61.8435 3.5683C61.7878 1.09543 62.7034 -0.017365 65.2644 0.0197281C71.0298 0.106279 76.8014 0.0939144 82.5729 0.0197281C84.8803 -0.0111828 86 0.804866 86 3.22828C85.9629 26.3929 85.9505 49.5576 85.9876 72.7161C85.9876 75.1457 84.9546 75.9926 82.6286 75.9617C76.8632 75.8937 71.0916 75.8937 65.3262 75.9988C63.1921 76.0359 62.2209 75.2075 61.6889 73.1488C60.365 67.9991 61.5156 62.8988 61.9982 57.8417C62.2765 54.9237 61.9548 52.4076 60.8166 49.8234C59.1216 45.9781 59.7402 45.057 63.7426 44.3769C65.6232 44.0555 67.9182 44.1605 68.8708 41.8299C70.0771 38.8686 67.6398 37.1005 66.5263 34.9305C66.05 34.0032 64.7571 33.6385 64.918 32.1733C65.0293 31.1656 64.1571 31.3881 63.6993 31.8394C62.957 32.5689 62.4745 33.1872 61.7136 31.7714C61.3981 31.178 60.8228 31.8642 60.6682 32.3217C59.567 35.6168 56.5483 37.6322 55.1255 40.7418C54.4203 42.2812 53.0531 43.4743 51.5376 44.3769C43.1678 49.3783 39.4377 56.9391 39.3696 66.503C39.3634 67.4303 39.382 68.3576 39.3387 69.285C39.283 70.5585 39.7098 72.3142 38.3118 72.8088C36.7344 73.3652 35.3858 72.0175 34.3837 70.8861C32.8186 69.1304 32.633 66.9975 33.4186 64.8029C34.2847 62.3856 35.3858 60.0302 36.023 57.5512C37.2911 52.6363 34.0929 47.8019 29.5709 47.5051C28.9028 47.4618 27.9997 47.1095 27.7584 48.0862C27.5605 48.8776 28.4079 49.0816 28.9214 49.2794C34.761 51.5173 34.5754 54.8557 32.6887 59.6531C32.1629 60.9946 31.6247 62.33 31.1236 63.6777C29.1132 69.0871 31.4144 73.4394 37.0622 74.9664C37.3282 75.0406 37.5385 75.3126 38.0829 75.7206L38.0767 75.7144Z" fill="white"/>
</svg>
