<svg width="106" height="78" viewBox="0 0 106 78" fill="none" xmlns="http://www.w3.org/2000/svg">
<path d="M28.5379 43.2539C27.7 43.4381 26.8528 43.5946 26.0149 43.7143C26.8713 43.7327 27.7276 43.6683 28.5379 43.2539Z" fill="white"/>
<path d="M34.7265 16.5593C40.0765 20.482 41.0617 25.9885 40.3251 32.0936C39.5148 38.7511 35.5368 42.4988 28.5294 43.2539C27.7098 43.6683 26.8627 43.7327 26.0063 43.7143C19.2751 44.718 12.4795 43.9169 5.72988 43.8524C1.18103 43.8064 -0.22782 45.2797 0.260215 49.5799C0.527252 51.9833 0.204965 54.4603 0.158924 56.9004C11.4666 57.8305 22.8111 57.9594 34.0727 56.7992C41.3656 56.0441 46.7892 51.7623 50.141 45.1416C51.025 43.4012 51.7064 41.5596 52.6456 39.3865C53.1245 40.206 53.456 40.6388 53.6401 41.1176C57.9311 52.2687 66.2093 57.4345 77.9958 57.3977C84.1285 57.3793 90.2611 57.4161 96.3938 57.4161C105.97 57.4161 105.805 57.4161 105.869 48.0145C105.887 44.5062 104.709 43.6038 101.348 43.6314C93.3827 43.6959 85.3808 44.4233 77.4617 43.3552C69.5427 42.287 65.795 37.7013 65.5832 29.5613C65.3622 21.0069 68.8245 16.1358 76.5225 14.4138C83.0327 12.9589 89.6626 13.8429 96.228 13.76C106.283 13.6311 106.21 13.7324 105.832 3.57576C105.74 1.09876 105.114 -0.0154184 102.425 0.0214144C93.6866 0.150329 84.9388 -0.162765 76.2094 0.177938C66.0436 0.57389 58.9533 5.76732 55.095 15.2333C54.3952 16.9461 53.8151 18.6956 52.9495 21.0713C52.397 19.6901 52.1484 19.1284 51.9458 18.5575C47.3233 5.24247 40.2422 0.122702 26.3102 0.0766613C18.9529 0.0490367 11.5863 0.205569 4.23816 0.0121972C1.06133 -0.0706766 -0.356739 0.886976 0.0760466 4.15589C0.21417 5.20562 0.0852587 6.30141 0.0944669 7.36957C0.158924 14.6993 -0.494858 13.5298 6.50337 13.7877C14.4408 14.0731 22.4428 12.6735 30.3066 14.6993C32.1114 14.5243 33.5939 15.1229 34.7173 16.5593H34.7265Z" fill="white"/>
<path d="M25.6002 41.3848C30.5174 41.4861 34.9005 40.4824 36.9078 35.5008C39.0718 30.1232 38.9152 24.7917 35.0754 20.0218C34.4124 19.2023 33.6573 18.4472 32.9483 17.6645C24.5044 14.8929 15.8671 16.5964 7.31269 16.5135C1.47469 19.322 -0.0354531 24.451 0.213168 30.2982C0.443373 35.6389 2.75463 39.7089 8.23351 41.3848C14.0255 41.3756 19.8174 41.2651 25.6002 41.3848ZM12.5245 35.4548C8.69392 35.1693 6.21692 33.4013 6.15246 29.1748C6.088 24.9022 7.92043 22.462 12.2759 22.1949C16.9905 21.9003 21.7604 21.9371 26.4842 22.2134C30.4437 22.4436 32.4419 24.8837 32.4327 28.9261C32.4327 33.079 30.1582 35.0956 26.2816 35.4456C24.0072 35.6481 21.6959 35.4824 19.4031 35.4916C17.1102 35.4916 14.8082 35.6389 12.5245 35.464V35.4548Z" fill="white"/>
<path d="M95.2969 41.5138C97.8844 41.3665 100.481 41.4218 103.069 41.4954C105.058 41.5507 105.757 40.6207 105.748 38.733C105.711 32.0294 105.739 25.3166 105.73 18.6131C105.73 17.37 105.693 15.8966 104.036 15.8966C100.407 15.8966 96.3651 14.6351 93.2988 16.4768C91.2545 17.7107 92.7647 21.3111 92.5437 23.8341C92.4148 25.3442 92.5161 26.882 92.5253 28.4014C92.5253 31.7532 92.5897 35.1141 92.5069 38.4567C92.4516 40.4825 92.9673 41.6244 95.2969 41.4954V41.5138Z" fill="white"/>
<path d="M45.8219 75.8419C45.8035 74.1752 44.1092 74.5159 42.9489 74.433C41.89 74.3594 40.8034 74.433 39.7629 74.2581C37.866 73.9358 36.8071 72.7479 36.8071 70.7958C36.8071 68.8345 37.9028 67.7295 39.7813 67.3427C39.9286 67.3151 40.0944 67.3243 40.2325 67.2691C42.0742 66.4864 45.8587 68.6227 45.5548 65.2709C45.3523 63.0517 41.6414 64.479 39.5143 64.2027C38.6303 64.083 37.7003 64.3409 36.7886 64.4237C35.2693 64.8565 34.7905 68.5766 33.1054 66.7258C29.4958 62.7571 25.3797 64.2304 21.2728 64.4237C21.1716 67.4072 23.2434 67.2414 25.2784 67.2599C27.7186 67.2783 30.4995 67.1586 30.6192 70.6024C30.7573 74.3225 27.9027 74.3778 25.2416 74.3962C23.2434 74.3962 21.1071 74.1292 21.3189 77.1955C24.6246 77.8769 28.5749 78.8253 30.9599 76.6062C33.842 73.9358 35.0299 75.2065 36.7518 77.2323C38.7224 77.3244 40.7021 77.4994 42.6727 77.481C43.9434 77.4718 45.8311 77.8769 45.8035 75.8603L45.8219 75.8419Z" fill="white"/>
<path d="M39.312 77.7935C38.4648 77.6278 37.6177 77.4252 36.7705 77.2134C37.59 77.6646 38.4464 77.7935 39.312 77.7935Z" fill="white"/>
<path d="M53.5199 77.7015C54.3762 77.8857 55.2234 77.8121 56.0153 76.9741C55.7206 77.1122 55.4168 77.1951 55.1129 77.2596C54.588 77.4253 54.054 77.5726 53.5199 77.7015Z" fill="white"/>
<path d="M66.8259 64.534C65.325 64.9391 64.1187 65.3167 62.4889 64.6905C59.2936 63.4566 56.1628 63.9078 53.5109 66.3204C52.277 69.8471 52.6914 73.4936 52.7006 77.1124C53.5109 77.3426 54.312 77.4255 55.1039 77.2597C55.4078 77.1676 55.7024 77.0756 56.0063 76.9743C56.0247 74.8288 55.9787 72.6832 56.08 70.5469C56.1813 68.5395 57.3875 67.499 59.3673 67.4714C61.3563 67.4346 62.5625 68.4659 62.7191 70.4641C62.848 72.14 62.7835 73.8251 62.848 75.5102C62.894 76.7625 63.5202 77.4991 64.8646 77.4531C66.1261 77.407 66.2827 76.4954 66.3103 75.5378C66.3563 74.0092 66.3563 72.4806 66.3747 70.9429C66.3932 68.7053 67.581 67.4806 69.7541 67.4622C71.9825 67.4438 73.0599 68.8066 73.1612 70.9613C73.244 72.6464 73.2256 74.3315 73.3177 76.0074C73.3638 76.8637 73.8886 77.407 74.7818 77.4162C75.6106 77.4162 76.3932 77.0479 76.4301 76.1823C76.5866 72.8674 77.5627 69.3591 75.2422 66.4401C73.0323 63.6592 69.8738 63.7052 66.8167 64.534H66.8259Z" fill="white"/>
<path d="M19.1642 66.2559C14.4036 62.4713 8.9339 63.917 3.78652 64.6352C0.959604 65.0312 0.195325 68.1435 0.140075 70.8784C0.0756181 73.4659 0.793862 76.3573 3.4182 76.8453C8.71291 77.8306 14.2839 79.1658 19.2287 75.372C20.5178 72.3241 20.2968 69.2854 19.1642 66.2559ZM13.6117 74.2486C11.4846 74.4235 9.32986 74.3867 7.20277 74.2946C4.94676 74.2026 3.33533 73.1988 3.39057 70.685C3.44582 68.1067 5.2138 67.3977 7.42376 67.324C8.49191 67.2872 9.56006 67.324 10.6374 67.324V67.3424C11.5582 67.3424 12.4698 67.2964 13.3907 67.3516C15.4717 67.4898 16.899 68.383 16.9635 70.685C17.0279 72.9594 15.6927 74.0828 13.6209 74.2578L13.6117 74.2486Z" fill="white"/>
<path d="M56.0156 76.9834C55.7117 77.0847 55.4171 77.1768 55.1132 77.2689C55.4171 77.2044 55.7209 77.1215 56.0156 76.9834Z" fill="white"/>
<path d="M105.104 71.4585C102.904 70.0865 102.95 72.5267 102.011 73.4843C100.666 74.8655 98.8705 74.3038 97.2959 73.7053C95.7582 73.116 95.4819 71.7255 95.6477 70.2798C95.8502 68.4658 97.0657 67.6371 98.7784 67.5266C100.454 67.4161 102.149 67.4253 103.825 67.3424C104.626 67.3056 105.316 66.9557 105.583 66.1454C105.767 65.5745 105.823 65.022 105.252 64.4971C103.079 62.5081 94.2112 64.4971 92.9312 67.3609C90.841 71.9926 92.4985 78.4936 100.371 77.674C101.136 77.674 101.9 77.674 102.664 77.674C104.322 77.6924 105.832 77.4622 105.823 75.3167C105.823 73.9815 106.421 72.2964 105.086 71.4585H105.104Z" fill="white"/>
<path d="M83.8052 64.1197C81.0427 64.313 78.2342 64.7182 78.0685 68.4567C78.1974 70.6851 78.3171 72.9043 78.4644 75.4734C81.9267 74.129 85.3798 70.9982 88.2159 75.8693C88.0778 76.7533 88.3909 77.4531 89.3025 77.49C90.343 77.5268 91.0152 76.873 91.0705 75.8049C91.1994 73.2266 91.6874 70.6206 90.7666 68.0884C89.5695 64.8103 86.9176 63.8987 83.796 64.1197H83.8052ZM84.2932 71.1639C83.1606 70.8325 81.1993 71.7533 81.2177 69.617C81.2361 67.8306 82.7647 67.14 84.4037 67.1584C86.052 67.1768 87.5806 67.9595 87.5161 69.6998C87.4332 71.698 85.4995 70.8601 84.3024 71.1547L84.2932 71.1639Z" fill="white"/>
<path d="M78.4648 75.4737C78.3175 72.9046 78.1977 70.6854 78.0688 68.457C76.7797 70.7407 77.2769 73.2085 77.4151 75.6118C77.4703 76.5234 77.9307 77.4074 79.0081 77.5639C79.8276 77.6836 80.3985 77.2969 80.8405 76.5326C82.9584 72.8309 85.5643 73.9635 88.2163 75.8604C85.3801 70.9893 81.9271 74.1201 78.4648 75.4645V75.4737Z" fill="white"/>
<path d="M47.5163 67.3336C47.636 69.5896 47.6084 71.864 47.5163 74.12C47.4058 76.9745 48.6028 78.0243 51.3653 77.1863C51.3837 72.9321 51.4113 68.6871 51.4298 64.433C48.8423 63.6687 47.3413 64.2764 47.5071 67.3336H47.5163Z" fill="white"/>
</svg>
